<?xml version="1.0" encoding="UTF-8" standalone="no"?>
<!DOCTYPE svg PUBLIC "-//W3C//DTD SVG 1.1//EN" "http://www.w3.org/Graphics/SVG/1.1/DTD/svg11.dtd">
<svg width="100%" height="100%" viewBox="0 0 517 448" version="1.1" xmlns="http://www.w3.org/2000/svg" xmlns:xlink="http://www.w3.org/1999/xlink" xml:space="preserve" xmlns:serif="http://www.serif.com/" style="fill-rule:evenodd;clip-rule:evenodd;stroke-linejoin:round;stroke-miterlimit:2;">
    <g transform="matrix(1,0,0,1,-1328.942275,-802.888751)">
        <g transform="matrix(0.915085,0,0,0.985075,115.151203,-72.938286)">
            <path d="M1629.092,889.097C1690.532,889.097 1749.457,911.77 1792.902,952.129C1836.347,992.487 1860.754,1047.225 1860.754,1104.3L1356.069,1104.3C1356.069,1047.225 1380.476,992.487 1423.921,952.129C1467.366,911.77 1526.291,889.097 1587.731,889.097L1629.092,889.097ZM1447.091,1060.137L1447.091,1081.569L1504.207,1081.569C1519.869,1081.569 1532.319,1077.583 1541.557,1069.612C1550.795,1061.64 1555.413,1048.681 1555.413,1030.734C1555.413,1012.786 1550.795,999.827 1541.557,991.855C1532.319,983.884 1519.869,979.898 1504.207,979.898L1447.091,979.898L1447.091,1001.461L1454.125,1001.461L1454.125,1060.137L1447.091,1060.137ZM1501.674,1060.137L1493.515,1060.137L1493.515,1001.33L1501.674,1001.33C1508.052,1001.33 1511.241,1004.553 1511.241,1011L1511.241,1050.467C1511.241,1053.777 1510.443,1056.217 1508.849,1057.785C1507.255,1059.353 1504.863,1060.137 1501.674,1060.137ZM1560.197,1081.569L1655.154,1081.569L1655.154,1039.489L1623.642,1039.489L1623.642,1060.137L1606.62,1060.137L1606.62,1036.876L1619,1036.876L1619,1021.978L1606.62,1021.978L1606.62,1001.33L1623.642,1001.33L1623.642,1019.364L1655.154,1019.364L1655.154,979.898L1560.197,979.898L1560.197,1001.33L1567.23,1001.33L1567.23,1060.137L1560.197,1060.137L1560.197,1081.569ZM1719.585,979.898L1719.585,1001.33L1726.9,1001.33L1717.193,1045.109L1715.787,1045.109L1706.08,1001.33L1713.395,1001.33L1713.395,979.898L1659.375,979.898L1659.375,1001.33L1665.002,1001.33L1690.183,1081.569L1735.763,1081.569L1760.944,1001.33L1766.571,1001.33L1766.571,979.898L1719.585,979.898Z"/>
        </g>
        <g transform="matrix(0.915085,0,0,-0.985075,115.151203,2126.546676)">
            <path d="M1716.586,889.097C1754.822,889.097 1791.491,903.207 1818.528,928.323C1845.565,953.439 1860.754,987.503 1860.754,1023.022L1860.754,1024.009L1356.069,1024.009L1356.069,1023.022C1356.069,987.503 1371.258,953.439 1398.295,928.323C1425.331,903.207 1462.001,889.097 1500.237,889.097L1716.586,889.097Z"/>
        </g>
        <g transform="matrix(1,0,0,1,0,5.345533)">
            <g transform="matrix(5.461114,0,0,7.182275,-7061.280339,-8867.029479)">
                <path d="M1606.816,1384.913L1607.416,1384.913L1607.416,1379.513L1606.816,1379.513L1606.816,1377.545L1612.324,1377.545C1613.356,1377.545 1614.144,1377.757 1614.688,1378.181C1615.232,1378.605 1615.504,1379.293 1615.504,1380.245C1615.504,1380.781 1615.396,1381.245 1615.18,1381.637C1614.964,1382.029 1614.656,1382.301 1614.256,1382.453L1614.268,1382.573C1615.036,1382.693 1615.42,1383.165 1615.42,1383.989L1615.42,1384.913L1615.984,1384.913L1615.984,1386.881L1612.18,1386.881L1612.18,1384.061C1612.18,1383.749 1612.134,1383.513 1612.042,1383.353C1611.95,1383.193 1611.806,1383.085 1611.61,1383.029C1611.414,1382.973 1611.136,1382.945 1610.776,1382.945L1610.776,1384.913L1611.568,1384.913L1611.568,1386.881L1606.816,1386.881L1606.816,1384.913ZM1611.424,1381.481C1611.656,1381.481 1611.83,1381.419 1611.946,1381.295C1612.062,1381.171 1612.12,1380.977 1612.12,1380.713L1612.12,1380.281C1612.12,1380.017 1612.062,1379.823 1611.946,1379.699C1611.83,1379.575 1611.656,1379.513 1611.424,1379.513L1610.776,1379.513L1610.776,1381.481L1611.424,1381.481Z"/>
            </g>
            <g transform="matrix(5.461114,0,0,7.182275,-7061.280339,-8867.029479)">
                <path d="M1606.816,1384.913L1607.416,1384.913L1607.416,1379.513L1606.816,1379.513L1606.816,1377.545L1612.324,1377.545C1613.356,1377.545 1614.144,1377.757 1614.688,1378.181C1615.232,1378.605 1615.504,1379.293 1615.504,1380.245C1615.504,1380.781 1615.396,1381.245 1615.18,1381.637C1614.964,1382.029 1614.656,1382.301 1614.256,1382.453L1614.268,1382.573C1615.036,1382.693 1615.42,1383.165 1615.42,1383.989L1615.42,1384.913L1615.984,1384.913L1615.984,1386.881L1612.18,1386.881L1612.18,1384.061C1612.18,1383.749 1612.134,1383.513 1612.042,1383.353C1611.95,1383.193 1611.806,1383.085 1611.61,1383.029C1611.414,1382.973 1611.136,1382.945 1610.776,1382.945L1610.776,1384.913L1611.568,1384.913L1611.568,1386.881L1606.816,1386.881L1606.816,1384.913Z" style="fill:none;"/>
            </g>
            <g transform="matrix(5.461114,0,0,7.182275,-7061.280339,-8867.029479)">
                <path d="M1611.424,1381.481C1611.656,1381.481 1611.83,1381.419 1611.946,1381.295C1612.062,1381.171 1612.12,1380.977 1612.12,1380.713L1612.12,1380.281C1612.12,1380.017 1612.062,1379.823 1611.946,1379.699C1611.83,1379.575 1611.656,1379.513 1611.424,1379.513L1610.776,1379.513L1610.776,1381.481L1611.424,1381.481Z" style="fill:none;"/>
            </g>
            <g transform="matrix(5.461114,0,0,7.182275,-7061.280339,-8867.029479)">
                <path d="M1598.26,1386.881L1598.26,1384.913L1598.86,1384.913L1598.86,1379.513L1598.26,1379.513L1598.26,1377.545L1606.36,1377.545L1606.36,1381.169L1603.672,1381.169L1603.672,1379.513L1602.22,1379.513L1602.22,1381.409L1603.276,1381.409L1603.276,1382.777L1602.22,1382.777L1602.22,1384.913L1603.672,1384.913L1603.672,1383.017L1606.36,1383.017L1606.36,1386.881L1598.26,1386.881Z"/>
            </g>
            <g transform="matrix(5.461114,0,0,7.182275,-7061.280339,-8867.029479)">
                <path d="M1598.26,1386.881L1598.26,1384.913L1598.86,1384.913L1598.86,1379.513L1598.26,1379.513L1598.26,1377.545L1606.36,1377.545L1606.36,1381.169L1603.672,1381.169L1603.672,1379.513L1602.22,1379.513L1602.22,1381.409L1603.276,1381.409L1603.276,1382.777L1602.22,1382.777L1602.22,1384.913L1603.672,1384.913L1603.672,1383.017L1606.36,1383.017L1606.36,1386.881L1598.26,1386.881Z" style="fill:none;"/>
            </g>
            <g transform="matrix(5.461114,0,0,7.182275,-7061.280339,-8867.029479)">
                <path d="M1593.376,1387.049C1592.12,1387.049 1591.15,1386.773 1590.466,1386.221C1589.782,1385.669 1589.44,1384.773 1589.44,1383.533L1589.44,1379.513L1588.84,1379.513L1588.84,1377.545L1593.28,1377.545L1593.28,1379.513L1592.8,1379.513L1592.8,1384.145C1592.8,1384.409 1592.858,1384.603 1592.974,1384.727C1593.09,1384.851 1593.264,1384.913 1593.496,1384.913C1593.728,1384.913 1593.902,1384.851 1594.018,1384.727C1594.134,1384.603 1594.192,1384.409 1594.192,1384.145L1594.192,1379.513L1593.712,1379.513L1593.712,1377.545L1597.828,1377.545L1597.828,1379.513L1597.228,1379.513L1597.228,1383.533C1597.228,1384.773 1596.896,1385.669 1596.232,1386.221C1595.568,1386.773 1594.616,1387.049 1593.376,1387.049Z"/>
            </g>
            <g transform="matrix(5.461114,0,0,7.182275,-7061.280339,-8867.029479)">
                <path d="M1593.376,1387.049C1592.12,1387.049 1591.15,1386.773 1590.466,1386.221C1589.782,1385.669 1589.44,1384.773 1589.44,1383.533L1589.44,1379.513L1588.84,1379.513L1588.84,1377.545L1593.28,1377.545L1593.28,1379.513L1592.8,1379.513L1592.8,1384.145C1592.8,1384.409 1592.858,1384.603 1592.974,1384.727C1593.09,1384.851 1593.264,1384.913 1593.496,1384.913C1593.728,1384.913 1593.902,1384.851 1594.018,1384.727C1594.134,1384.603 1594.192,1384.409 1594.192,1384.145L1594.192,1379.513L1593.712,1379.513L1593.712,1377.545L1597.828,1377.545L1597.828,1379.513L1597.228,1379.513L1597.228,1383.533C1597.228,1384.773 1596.896,1385.669 1596.232,1386.221C1595.568,1386.773 1594.616,1387.049 1593.376,1387.049Z" style="fill:none;"/>
            </g>
            <g transform="matrix(5.461114,0,0,7.182275,-7061.280339,-8867.029479)">
                <path d="M1588.552,1383.881L1587.952,1383.881L1587.952,1386.281C1587.6,1386.481 1587.086,1386.659 1586.41,1386.815C1585.734,1386.971 1585.004,1387.049 1584.22,1387.049C1582.724,1387.049 1581.552,1386.655 1580.704,1385.867C1579.856,1385.079 1579.432,1383.861 1579.432,1382.213C1579.432,1380.525 1579.854,1379.297 1580.698,1378.529C1581.542,1377.761 1582.748,1377.377 1584.316,1377.377C1585.076,1377.377 1585.788,1377.457 1586.452,1377.617C1587.116,1377.777 1587.616,1377.957 1587.952,1378.157L1587.952,1381.025L1584.952,1381.025L1584.952,1380.461C1584.952,1380.125 1584.882,1379.883 1584.742,1379.735C1584.602,1379.587 1584.38,1379.513 1584.076,1379.513C1583.772,1379.513 1583.55,1379.587 1583.41,1379.735C1583.27,1379.883 1583.2,1380.125 1583.2,1380.461L1583.2,1383.965C1583.2,1384.301 1583.27,1384.543 1583.41,1384.691C1583.55,1384.839 1583.772,1384.913 1584.076,1384.913C1584.38,1384.913 1584.602,1384.839 1584.742,1384.691C1584.882,1384.543 1584.952,1384.301 1584.952,1383.965L1584.952,1383.881L1584.304,1383.881L1584.304,1382.093L1588.552,1382.093L1588.552,1383.881Z"/>
            </g>
            <g transform="matrix(5.461114,0,0,7.182275,-7061.280339,-8867.029479)">
                <path d="M1588.552,1383.881L1587.952,1383.881L1587.952,1386.281C1587.6,1386.481 1587.086,1386.659 1586.41,1386.815C1585.734,1386.971 1585.004,1387.049 1584.22,1387.049C1582.724,1387.049 1581.552,1386.655 1580.704,1385.867C1579.856,1385.079 1579.432,1383.861 1579.432,1382.213C1579.432,1380.525 1579.854,1379.297 1580.698,1378.529C1581.542,1377.761 1582.748,1377.377 1584.316,1377.377C1585.076,1377.377 1585.788,1377.457 1586.452,1377.617C1587.116,1377.777 1587.616,1377.957 1587.952,1378.157L1587.952,1381.025L1584.952,1381.025L1584.952,1380.461C1584.952,1380.125 1584.882,1379.883 1584.742,1379.735C1584.602,1379.587 1584.38,1379.513 1584.076,1379.513C1583.772,1379.513 1583.55,1379.587 1583.41,1379.735C1583.27,1379.883 1583.2,1380.125 1583.2,1380.461L1583.2,1383.965C1583.2,1384.301 1583.27,1384.543 1583.41,1384.691C1583.55,1384.839 1583.772,1384.913 1584.076,1384.913C1584.38,1384.913 1584.602,1384.839 1584.742,1384.691C1584.882,1384.543 1584.952,1384.301 1584.952,1383.965L1584.952,1383.881L1584.304,1383.881L1584.304,1382.093L1588.552,1382.093L1588.552,1383.881Z" style="fill:none;"/>
            </g>
            <g transform="matrix(5.461114,0,0,7.182275,-7061.280339,-8867.029479)">
                <path d="M1569.904,1384.913L1570.504,1384.913L1570.504,1379.513L1569.904,1379.513L1569.904,1377.545L1575.412,1377.545C1576.444,1377.545 1577.232,1377.757 1577.776,1378.181C1578.32,1378.605 1578.592,1379.293 1578.592,1380.245C1578.592,1380.781 1578.484,1381.245 1578.268,1381.637C1578.052,1382.029 1577.744,1382.301 1577.344,1382.453L1577.356,1382.573C1578.124,1382.693 1578.508,1383.165 1578.508,1383.989L1578.508,1384.913L1579.072,1384.913L1579.072,1386.881L1575.268,1386.881L1575.268,1384.061C1575.268,1383.749 1575.222,1383.513 1575.13,1383.353C1575.038,1383.193 1574.894,1383.085 1574.698,1383.029C1574.502,1382.973 1574.224,1382.945 1573.864,1382.945L1573.864,1384.913L1574.656,1384.913L1574.656,1386.881L1569.904,1386.881L1569.904,1384.913ZM1574.512,1381.481C1574.744,1381.481 1574.918,1381.419 1575.034,1381.295C1575.15,1381.171 1575.208,1380.977 1575.208,1380.713L1575.208,1380.281C1575.208,1380.017 1575.15,1379.823 1575.034,1379.699C1574.918,1379.575 1574.744,1379.513 1574.512,1379.513L1573.864,1379.513L1573.864,1381.481L1574.512,1381.481Z"/>
            </g>
            <g transform="matrix(5.461114,0,0,7.182275,-7061.280339,-8867.029479)">
                <path d="M1569.904,1384.913L1570.504,1384.913L1570.504,1379.513L1569.904,1379.513L1569.904,1377.545L1575.412,1377.545C1576.444,1377.545 1577.232,1377.757 1577.776,1378.181C1578.32,1378.605 1578.592,1379.293 1578.592,1380.245C1578.592,1380.781 1578.484,1381.245 1578.268,1381.637C1578.052,1382.029 1577.744,1382.301 1577.344,1382.453L1577.356,1382.573C1578.124,1382.693 1578.508,1383.165 1578.508,1383.989L1578.508,1384.913L1579.072,1384.913L1579.072,1386.881L1575.268,1386.881L1575.268,1384.061C1575.268,1383.749 1575.222,1383.513 1575.13,1383.353C1575.038,1383.193 1574.894,1383.085 1574.698,1383.029C1574.502,1382.973 1574.224,1382.945 1573.864,1382.945L1573.864,1384.913L1574.656,1384.913L1574.656,1386.881L1569.904,1386.881L1569.904,1384.913Z" style="fill:none;"/>
            </g>
            <g transform="matrix(5.461114,0,0,7.182275,-7061.280339,-8867.029479)">
                <path d="M1574.512,1381.481C1574.744,1381.481 1574.918,1381.419 1575.034,1381.295C1575.15,1381.171 1575.208,1380.977 1575.208,1380.713L1575.208,1380.281C1575.208,1380.017 1575.15,1379.823 1575.034,1379.699C1574.918,1379.575 1574.744,1379.513 1574.512,1379.513L1573.864,1379.513L1573.864,1381.481L1574.512,1381.481Z" style="fill:none;"/>
            </g>
            <g transform="matrix(5.461114,0,0,7.182275,-7061.280339,-8867.029479)">
                <path d="M1565.02,1387.049C1563.764,1387.049 1562.794,1386.773 1562.11,1386.221C1561.426,1385.669 1561.084,1384.773 1561.084,1383.533L1561.084,1379.513L1560.484,1379.513L1560.484,1377.545L1564.924,1377.545L1564.924,1379.513L1564.444,1379.513L1564.444,1384.145C1564.444,1384.409 1564.502,1384.603 1564.618,1384.727C1564.734,1384.851 1564.908,1384.913 1565.14,1384.913C1565.372,1384.913 1565.546,1384.851 1565.662,1384.727C1565.778,1384.603 1565.836,1384.409 1565.836,1384.145L1565.836,1379.513L1565.356,1379.513L1565.356,1377.545L1569.472,1377.545L1569.472,1379.513L1568.872,1379.513L1568.872,1383.533C1568.872,1384.773 1568.54,1385.669 1567.876,1386.221C1567.212,1386.773 1566.26,1387.049 1565.02,1387.049Z"/>
            </g>
            <g transform="matrix(5.461114,0,0,7.182275,-7061.280339,-8867.029479)">
                <path d="M1565.02,1387.049C1563.764,1387.049 1562.794,1386.773 1562.11,1386.221C1561.426,1385.669 1561.084,1384.773 1561.084,1383.533L1561.084,1379.513L1560.484,1379.513L1560.484,1377.545L1564.924,1377.545L1564.924,1379.513L1564.444,1379.513L1564.444,1384.145C1564.444,1384.409 1564.502,1384.603 1564.618,1384.727C1564.734,1384.851 1564.908,1384.913 1565.14,1384.913C1565.372,1384.913 1565.546,1384.851 1565.662,1384.727C1565.778,1384.603 1565.836,1384.409 1565.836,1384.145L1565.836,1379.513L1565.356,1379.513L1565.356,1377.545L1569.472,1377.545L1569.472,1379.513L1568.872,1379.513L1568.872,1383.533C1568.872,1384.773 1568.54,1385.669 1567.876,1386.221C1567.212,1386.773 1566.26,1387.049 1565.02,1387.049Z" style="fill:none;"/>
            </g>
            <g transform="matrix(5.461114,0,0,7.182275,-7061.280339,-8867.029479)">
                <path d="M1551.232,1384.913L1551.832,1384.913L1551.832,1379.513L1551.232,1379.513L1551.232,1377.545L1556.74,1377.545C1557.74,1377.545 1558.52,1377.749 1559.08,1378.157C1559.64,1378.565 1559.92,1379.149 1559.92,1379.909C1559.92,1380.381 1559.808,1380.779 1559.584,1381.103C1559.36,1381.427 1559.098,1381.671 1558.798,1381.835C1558.498,1381.999 1558.208,1382.109 1557.928,1382.165L1557.928,1382.285C1558.496,1382.341 1559.008,1382.521 1559.464,1382.825C1559.92,1383.129 1560.148,1383.673 1560.148,1384.457C1560.148,1385.297 1559.832,1385.911 1559.2,1386.299C1558.568,1386.687 1557.748,1386.881 1556.74,1386.881L1551.232,1386.881L1551.232,1384.913ZM1555.84,1381.481C1556.072,1381.481 1556.246,1381.419 1556.362,1381.295C1556.478,1381.171 1556.536,1380.977 1556.536,1380.713L1556.536,1380.281C1556.536,1380.017 1556.478,1379.823 1556.362,1379.699C1556.246,1379.575 1556.072,1379.513 1555.84,1379.513L1555.192,1379.513L1555.192,1381.481L1555.84,1381.481ZM1555.924,1384.913C1556.156,1384.913 1556.33,1384.851 1556.446,1384.727C1556.562,1384.603 1556.62,1384.409 1556.62,1384.145L1556.62,1383.617C1556.62,1383.353 1556.562,1383.159 1556.446,1383.035C1556.33,1382.911 1556.156,1382.849 1555.924,1382.849L1555.192,1382.849L1555.192,1384.913L1555.924,1384.913Z"/>
            </g>
            <g transform="matrix(5.461114,0,0,7.182275,-7061.280339,-8867.029479)">
                <path d="M1551.232,1384.913L1551.832,1384.913L1551.832,1379.513L1551.232,1379.513L1551.232,1377.545L1556.74,1377.545C1557.74,1377.545 1558.52,1377.749 1559.08,1378.157C1559.64,1378.565 1559.92,1379.149 1559.92,1379.909C1559.92,1380.381 1559.808,1380.779 1559.584,1381.103C1559.36,1381.427 1559.098,1381.671 1558.798,1381.835C1558.498,1381.999 1558.208,1382.109 1557.928,1382.165L1557.928,1382.285C1558.496,1382.341 1559.008,1382.521 1559.464,1382.825C1559.92,1383.129 1560.148,1383.673 1560.148,1384.457C1560.148,1385.297 1559.832,1385.911 1559.2,1386.299C1558.568,1386.687 1557.748,1386.881 1556.74,1386.881L1551.232,1386.881L1551.232,1384.913Z" style="fill:none;"/>
            </g>
            <g transform="matrix(5.461114,0,0,7.182275,-7061.280339,-8867.029479)">
                <path d="M1555.84,1381.481C1556.072,1381.481 1556.246,1381.419 1556.362,1381.295C1556.478,1381.171 1556.536,1380.977 1556.536,1380.713L1556.536,1380.281C1556.536,1380.017 1556.478,1379.823 1556.362,1379.699C1556.246,1379.575 1556.072,1379.513 1555.84,1379.513L1555.192,1379.513L1555.192,1381.481L1555.84,1381.481Z" style="fill:none;"/>
            </g>
            <g transform="matrix(14.167129,0,0,14.167129,-16095.663566,-18714.07564)">
                <g transform="matrix(12,0,0,12,1235.488042,1399.71249)">
                </g>
                <text x="1229.5px" y="1399.712px" style="font-family:'AlfaSlabOne-Regular', 'Alfa Slab One';font-size:12px;">&lt;</text>
            </g>
            <g transform="matrix(-14.167129,0,0,14.167129,19269.658096,-18714.07564)">
                <g transform="matrix(12,0,0,12,1235.488042,1399.71249)">
                </g>
                <text x="1229.5px" y="1399.712px" style="font-family:'AlfaSlabOne-Regular', 'Alfa Slab One';font-size:12px;">&lt;</text>
            </g>
        </g>
        <g transform="matrix(5.461114,0,0,7.182275,-7061.280339,-8867.029479)">
            <path d="M1555.924,1384.913C1556.156,1384.913 1556.33,1384.851 1556.446,1384.727C1556.562,1384.603 1556.62,1384.409 1556.62,1384.145L1556.62,1383.617C1556.62,1383.353 1556.562,1383.159 1556.446,1383.035C1556.33,1382.911 1556.156,1382.849 1555.924,1382.849L1555.192,1382.849L1555.192,1384.913L1555.924,1384.913Z" style="fill:none;"/>
        </g>
        <g transform="matrix(10.727697,0,0,10.727697,-15403.187673,-13709.312744)">
            <path d="M1593.25,1361.117L1597.258,1361.117L1597.258,1363.085L1596.778,1363.085L1594.63,1370.453L1590.742,1370.453L1588.594,1363.085L1588.114,1363.085L1588.114,1361.117L1592.722,1361.117L1592.722,1363.085L1592.098,1363.085L1592.926,1367.105L1593.046,1367.105L1593.874,1363.085L1593.25,1363.085L1593.25,1361.117Z" style="fill:none;"/>
        </g>
        <g transform="matrix(10.727697,0,0,10.727697,-15403.187673,-13709.312744)">
            <path d="M1579.654,1370.453L1579.654,1368.485L1580.254,1368.485L1580.254,1363.085L1579.654,1363.085L1579.654,1361.117L1587.754,1361.117L1587.754,1364.741L1585.066,1364.741L1585.066,1363.085L1583.614,1363.085L1583.614,1364.981L1584.67,1364.981L1584.67,1366.349L1583.614,1366.349L1583.614,1368.485L1585.066,1368.485L1585.066,1366.589L1587.754,1366.589L1587.754,1370.453L1579.654,1370.453Z" style="fill:none;"/>
        </g>
        <g transform="matrix(10.727697,0,0,10.727697,-15403.187673,-13709.312744)">
            <path d="M1570.006,1368.485L1570.606,1368.485L1570.606,1363.097L1570.006,1363.097L1570.006,1361.117L1574.878,1361.117C1576.214,1361.117 1577.276,1361.483 1578.064,1362.215C1578.852,1362.947 1579.246,1364.137 1579.246,1365.785C1579.246,1367.433 1578.852,1368.623 1578.064,1369.355C1577.276,1370.087 1576.214,1370.453 1574.878,1370.453L1570.006,1370.453L1570.006,1368.485Z" style="fill:none;"/>
        </g>
        <g transform="matrix(10.727697,0,0,10.727697,-15403.187673,-13709.312744)">
            <path d="M1574.662,1368.485C1574.934,1368.485 1575.138,1368.413 1575.274,1368.269C1575.41,1368.125 1575.478,1367.901 1575.478,1367.597L1575.478,1363.973C1575.478,1363.381 1575.206,1363.085 1574.662,1363.085L1573.966,1363.085L1573.966,1368.485L1574.662,1368.485Z" style="fill:none;"/>
        </g>
    </g>
</svg>
