<?xml version="1.0" encoding="UTF-8" standalone="no"?>
<!DOCTYPE svg PUBLIC "-//W3C//DTD SVG 1.1//EN" "http://www.w3.org/Graphics/SVG/1.1/DTD/svg11.dtd">
<svg width="100%" height="100%" viewBox="0 0 1368 794" version="1.1" xmlns="http://www.w3.org/2000/svg" xmlns:xlink="http://www.w3.org/1999/xlink" xml:space="preserve" xmlns:serif="http://www.serif.com/" style="fill-rule:evenodd;clip-rule:evenodd;stroke-linejoin:round;stroke-miterlimit:2;">
    <g transform="matrix(1,0,0,1,0.657617,0.74622)">
        <g id="Fundo" transform="matrix(1.326172,0,0,1.326172,0,0)">
            <path d="M1023.999,199.5C1023.999,248.172 1039.669,479.303 1023.999,590.999C1021.916,605.849 973.253,590.999 969.5,590.999L435.5,590.999C440.39,570.12 481.051,519.871 506.222,503.135C591.11,446.69 613.739,491.611 675.834,414.459C713.505,367.652 712.55,299.508 760.49,240.024C767.773,230.987 811.39,176.866 887.092,169.178C961.413,161.63 1022.973,199.247 1023.999,199.5Z" style="fill:rgb(160,208,232);"/>
            <path d="M288.5,0C288.454,0.207 287.923,2.593 287.923,2.593C281.728,78.152 218.986,96.761 197.456,105.397C142.292,127.523 144.649,149.742 124.988,188.733C100.281,237.732 51.288,266.023 0,263.5L0,0C1.496,-1.266 1.81,0 24.5,0L288.5,0Z" style="fill:rgb(163,210,232);"/>
            <path d="M244.5,590.999L0,590.999C-1.116,589.388 -0,589.155 0,566.5L0,361.5C62.367,378.138 68.961,435.898 79.352,458.569C107.114,519.14 157.608,492.133 205.335,521.769C246.786,547.508 243.969,586.21 244.5,590.999Z" style="fill:rgb(139,190,225);"/>
            <path d="M822.5,0L1023.999,0C1025.156,2.148 1023.999,2.338 1023.999,30.5L1023.999,163.5C968.026,143.259 983.675,92.917 944.721,71.088C912.592,53.084 891.969,73.115 852.632,50.275C825.817,34.707 823.295,7.886 822.879,3.469C822.709,1.658 822.692,1.755 822.5,0Z" style="fill:rgb(141,192,226);"/>
        </g>
    </g>
</svg>
