<?xml version="1.0" encoding="UTF-8" standalone="no"?>
<!DOCTYPE svg PUBLIC "-//W3C//DTD SVG 1.1//EN" "http://www.w3.org/Graphics/SVG/1.1/DTD/svg11.dtd">
<svg width="100%" height="100%" viewBox="0 0 115 90" version="1.1" xmlns="http://www.w3.org/2000/svg" xmlns:xlink="http://www.w3.org/1999/xlink" xml:space="preserve" xmlns:serif="http://www.serif.com/" style="fill-rule:evenodd;clip-rule:evenodd;stroke-linejoin:round;stroke-miterlimit:2;">
    <g transform="matrix(1,0,0,1,-320.980492,-706.947006)">
        <g transform="matrix(1.326172,0,0,1.326172,-27.358575,42.591834)">
            <g transform="matrix(1,0,0,1,115.56569,58.514274)">
                <path d="M168.597,446.945C170.047,446.794 170.01,446.696 171.491,446.743C176.438,446.897 176.339,445.226 180.62,443.886C193.145,439.965 203.017,445.179 204.73,446.084C209.385,448.543 211.448,443.966 218.845,451.157C231.866,463.814 232.764,467.816 233.506,471.499C234.831,478.075 229.719,483.2 226.602,484.699C223.585,486.15 222.595,485.326 221.67,488.541C217.326,503.64 197.7,514.801 179.566,508.317C162.134,502.084 159.656,490.699 158.571,487.478C157.533,484.399 152.705,486.101 148.965,480.207C142.206,469.557 155.949,456.938 156.442,456.439C163.941,448.855 164.678,448.501 168.597,446.945Z" style="fill:rgb(38,41,33);"/>
            </g>
        </g>
        <g transform="matrix(1.326172,0,0,1.326172,-27.358575,42.591834)">
            <g transform="matrix(1,0,0,1,115.56569,58.514274)">
                <path d="M173.676,450.761C174.956,449.911 174.869,449.853 176.234,449.062C177.387,448.394 183.869,444.64 192.501,445.48C201.303,446.336 205.456,449.826 206.529,450.466L207.434,452.51C215.465,470.403 210.629,477.63 217.895,484.201C217.373,484.489 217.023,485.034 216.5,485.323C216.211,485.482 215.787,485.305 215.526,485.508C214.434,486.353 213.39,495.096 200.62,500.853C200.264,501.014 199.833,501.043 199.535,501.295C199.158,501.614 199.167,502.473 198.674,502.5C198.081,502.533 197.85,501.388 197.257,501.421C198.657,498.136 198.27,498.062 198.764,494.561C199.072,492.374 204.187,492.433 206.268,487.421C207.364,484.781 205.074,483.816 203.906,485.777C203.621,486.257 203.433,486.792 203.132,487.262C200.935,490.693 196.455,490.867 193.792,489.057C188.992,485.795 196.289,484.63 197.54,480.511C199.4,474.394 190.055,475.112 188.488,475.154C182.597,475.315 179.759,479.79 186.554,484.424C192.324,488.358 183.538,490.203 183.465,490.211C177.264,490.86 176.991,483.851 174.489,484.474C172.982,484.849 174.174,487.381 174.281,487.608C176.364,492.033 181.413,493.231 181.584,493.396C183.246,495.014 181.318,495.781 183.801,501.392C183.16,501.37 182.87,502.522 182.229,502.5C181.764,502.484 181.882,501.571 181.495,501.313C180.653,500.751 179.618,500.552 178.692,500.142C178.465,500.042 176.84,499.25 176.68,499.171C175.875,498.779 171.031,496.417 167.968,492.147C163.803,486.339 164.4,485.972 163.999,485.5C163.575,485 162.8,484.89 162.375,484.391C169.416,478.28 166.077,466.876 172.562,453.517C172.872,452.827 172.85,452.843 173.676,450.761Z" style="fill:rgb(216,176,107);"/>
            </g>
        </g>
        <g transform="matrix(1.326172,0,0,1.326172,-27.358575,42.591834)">
            <g transform="matrix(1,0,0,1,115.56569,58.514274)">
                <path d="M183.801,501.392C181.318,495.781 183.246,495.014 181.584,493.396C181.413,493.231 176.364,492.033 174.281,487.608C174.174,487.381 172.982,484.849 174.489,484.474C176.991,483.851 177.264,490.86 183.465,490.211C183.538,490.203 192.324,488.358 186.554,484.424C179.759,479.79 182.597,475.315 188.488,475.154C190.055,475.112 199.4,474.394 197.54,480.511C196.289,484.63 188.992,485.795 193.792,489.057C196.455,490.867 200.935,490.693 203.132,487.262C203.433,486.792 203.621,486.257 203.906,485.777C205.074,483.816 207.364,484.781 206.268,487.421C204.187,492.433 199.072,492.374 198.764,494.561C198.27,498.062 198.657,498.136 197.257,501.421C194.133,505.779 187.542,506.932 183.801,501.392Z" style="fill:rgb(41,42,35);"/>
            </g>
        </g>
        <g transform="matrix(1.326172,0,0,1.326172,-27.358575,42.591834)">
            <g transform="matrix(1,0,0,1,115.56569,58.514274)">
                <path d="M206.529,450.466C211.641,448.967 212.863,448.659 224.615,461.394C239.683,477.725 222.789,486.398 218.934,481.151C213.678,473.997 217.072,465.032 210.581,453.444C210.077,452.545 209.705,452.45 209.594,452.319C209.56,452.278 209.363,451.497 208.5,451.851C208.114,452.01 207.821,452.352 207.434,452.51L206.529,450.466Z" style="fill:rgb(131,100,76);"/>
            </g>
        </g>
        <g transform="matrix(1.326172,0,0,1.326172,-27.358575,42.591834)">
            <g transform="matrix(1,0,0,1,115.56569,58.514274)">
                <path d="M173.676,450.761C172.85,452.843 172.872,452.827 172.562,453.517C172.236,453.002 173.196,453.04 172.869,452.522C172.803,452.419 172.681,452.225 171.5,451.838C170.546,451.525 170.79,452.132 170.104,453.132C164.044,461.958 166.478,477.724 160.29,482.206C156.989,484.596 141.187,477.672 156.605,460.603C169.395,446.444 171.624,449.737 173.676,450.761Z" style="fill:rgb(129,99,75);"/>
            </g>
        </g>
        <g transform="matrix(1.326172,0,0,1.326172,-27.358575,42.591834)">
            <g transform="matrix(1,0,0,1,115.56569,58.514274)">
                <path d="M162.375,484.391C162.8,484.89 163.575,485 163.999,485.5C164.4,485.972 163.803,486.339 167.968,492.147C171.031,496.417 175.875,498.779 176.68,499.171C176.84,499.25 178.465,500.042 178.692,500.142C179.618,500.552 180.653,500.751 181.495,501.313C181.882,501.571 181.764,502.484 182.229,502.5C182.87,502.522 183.16,501.37 183.801,501.392C187.542,506.932 194.133,505.779 197.257,501.421C197.85,501.388 198.081,502.533 198.674,502.5C199.167,502.473 199.158,501.614 199.535,501.295C199.833,501.043 200.264,501.014 200.62,500.853C213.39,495.096 214.434,486.353 215.526,485.508C215.787,485.305 216.211,485.482 216.5,485.323C217.023,485.034 217.373,484.489 217.895,484.201C218.256,484.699 219.08,484.812 218.802,487.553C218.779,487.78 218.642,489.132 218.09,490.323C213.523,500.182 205.329,503.652 199.309,506.014C187.807,510.527 172.55,503.957 166.474,496.522C158.396,486.638 162.266,484.511 162.375,484.391Z" style="fill:rgb(170,134,90);"/>
            </g>
        </g>
        <g transform="matrix(1.326172,0,0,1.326172,-27.358575,42.591834)">
            <g transform="matrix(1,0,0,1,115.56569,58.514274)">
                <path d="M191.424,502.11C191.367,502.11 187.615,502.891 185.859,499.312C184.95,497.461 184.65,492.241 187.449,492.065C189.761,491.919 188.868,493.143 188.993,495.464C189.213,499.551 191.237,498.006 191.448,497.472C192.137,495.733 190.548,490.725 194.444,492.609C194.807,492.785 196.493,493.6 195.595,497.524C194.618,501.79 191.858,501.938 191.424,502.11Z" style="fill:rgb(175,119,113);"/>
            </g>
        </g>
        <g transform="matrix(1.326172,0,0,1.326172,-27.358575,42.591834)">
            <g transform="matrix(1,0,0,1,115.56569,58.514274)">
                <path d="M178.45,465.92C178.814,466.035 181.781,466.978 182.453,468.522C183.605,471.168 181.347,471.458 180.814,471.026C178.702,469.311 178.568,467.705 176.498,469.498C175.981,469.947 175.667,470.596 175.166,471.062C173.018,473.062 171.382,467.756 176.388,466.18C177.481,465.836 178.434,465.922 178.45,465.92Z" style="fill:rgb(49,40,16);"/>
            </g>
        </g>
        <g transform="matrix(1.326172,0,0,1.326172,-27.358575,42.591834)">
            <g transform="matrix(1,0,0,1,115.56569,58.514274)">
                <path d="M201.588,465.989C201.993,466.01 205.003,466.169 206.388,467.61C207.777,469.054 207.622,470.694 207.151,471.111C205.687,472.41 205.684,471.063 204.281,469.716C201.465,467.011 199.772,472.477 198.159,470.962C195.548,468.51 201.142,466.175 201.588,465.989Z" style="fill:rgb(48,40,17);"/>
            </g>
        </g>
    </g>
</svg>
