<?xml version="1.0" encoding="UTF-8" standalone="no"?>
<!DOCTYPE svg PUBLIC "-//W3C//DTD SVG 1.1//EN" "http://www.w3.org/Graphics/SVG/1.1/DTD/svg11.dtd">
<svg width="100%" height="100%" viewBox="0 0 275 251" version="1.1" xmlns="http://www.w3.org/2000/svg" xmlns:xlink="http://www.w3.org/1999/xlink" xml:space="preserve" xmlns:serif="http://www.serif.com/" style="fill-rule:evenodd;clip-rule:evenodd;stroke-linejoin:round;stroke-miterlimit:2;">
    <g transform="matrix(1,0,0,1,-113.622331,-76.444859)">
        <g transform="matrix(1.326172,0,0,1.326172,0,0)">
            <path d="M197.548,169.78C197.776,169.802 203.51,169.154 210.125,173.949C217.405,179.226 223.284,194.613 210.576,205.591C205.297,210.152 200.846,208.277 200.466,212.497C200.021,217.457 198.644,239.134 173.52,245.582C172.19,245.923 160.632,248.099 149.666,241.225C131.149,229.62 133.58,210.166 133.563,199.5C133.547,189.043 133.844,188.629 131.839,187.055C123.779,180.732 132.106,173.951 122.553,170.361C103.779,163.308 96.081,146.547 94.105,142.69C89.706,134.106 93.737,133.727 93.616,130.494C93.546,128.608 87.837,116.762 86.126,98.539C85.382,90.604 84.203,77.028 95.265,69.148C100.497,65.421 104.597,66.417 105.815,63.629C111.365,50.927 125.197,60.791 120.439,71.47C117.819,77.35 109.752,77.478 106.746,72.352C106.385,71.736 106.233,69.331 102.662,70.87C87.181,77.544 89.302,93.162 93.767,113.434C94.043,114.691 97.432,127.202 98.596,128.401C100.498,130.361 103.636,126.744 108.093,135.696C111.418,142.371 117.523,154.06 133.487,156.587C141.862,157.912 155.971,152.582 163.81,136.636C166.525,131.114 166.711,130.007 171.44,129.108C173.144,128.784 174.182,129.074 176.673,119.544C180.844,103.592 185.873,84.248 175.405,74.606C172.67,72.087 167.373,68.922 165.977,70.837C165.282,71.79 164.23,76.409 157.549,76.014C148.072,75.454 148.226,56.901 159.476,57.752C165.473,58.206 165.138,64.464 168.534,65.385C189.243,71.001 187.076,90.769 185.261,104.466C183.528,117.547 178.01,129.508 178.489,131.503C179.355,135.102 181.649,135.448 177.879,142.712C177.485,143.47 175.191,148.991 169.681,155.642C155.077,173.271 144.918,167.278 144.207,177.467C144.169,178.016 143.831,182.862 143.02,184.252C141.357,187.102 138.717,186.763 138.684,190.502C138.445,217.691 138.752,221.754 144.946,230.168C147.239,233.284 154.632,239.976 163.474,240.749C192.083,243.25 198.007,211.86 194.293,209.925C194.113,209.831 181.362,207.364 178.167,194.59C175.217,182.793 183.648,171.112 195.554,169.884C196.216,169.816 196.886,169.848 197.548,169.78Z" style="fill:rgb(27,49,55);"/>
            <path d="M211.503,141.249C210.059,141.162 207.535,141.479 206.87,138.437C206.714,137.725 206.733,129.53 206.732,128.501C206.701,86.13 206.551,85.8 207.744,84.785C208.885,83.815 209.08,83.865 242.498,83.889C278.84,83.916 279.529,83.512 280.544,85.471C280.977,86.305 281.161,86.332 281.111,115.497C281.07,139.09 281.634,140.379 278.446,141.212C277.128,141.556 216.858,141.274 211.503,141.249Z" style="fill:rgb(25,53,60);"/>
            <path d="M253.509,137.251C212.797,137.027 211.564,137.812 210.857,136.315C210.558,135.683 210.744,89.698 210.765,89.548C211.007,87.842 211.717,87.807 225.499,87.846C275.511,87.988 275.803,87.561 276.562,88.457C277.082,89.071 277.148,89.148 277.013,98.504C276.69,120.867 277.327,135.263 276.626,136.586C276.205,137.38 275.928,137.261 259.503,137.264C257.505,137.26 255.507,137.255 253.509,137.251Z" style="fill:rgb(62,124,123);"/>
            <path d="M106.819,108.443C105.501,91.696 118.357,89.505 122.499,89.562C133.719,89.717 133.843,97.723 137.369,94.367C146.221,85.942 157.084,89.936 160.859,94.186C176.97,112.321 143.704,135.635 143.641,135.685C136.094,141.637 134.958,140.655 132.307,138.795C108.551,122.125 107.134,109.476 106.819,108.443Z" style="fill:rgb(38,44,49);"/>
            <path d="M197.553,162.322C197.298,162.195 195.7,162.22 195.415,159.506C195.353,158.908 195.403,95.023 195.407,93.5C195.422,86.04 193.665,75.676 204.434,73.189C206.899,72.62 275.898,72.913 281.514,73.031C287.977,73.167 291.321,78.172 292.111,81.59C292.475,83.164 292.288,180.097 292.193,181.476C291.807,187.031 286.622,190.084 283.529,190.662C281.035,191.127 232.901,190.909 228.499,190.889C223.781,190.868 224.9,187.883 225.192,187.326C226,185.79 226.581,186.248 264.499,186.14C283.095,186.087 287.33,187.405 287.699,180.511C287.866,177.376 287.729,118.861 287.717,113.5C287.643,81.919 288.381,81.166 285.334,78.729C283.435,77.211 283.126,77.554 228.5,77.509C203.825,77.489 202.886,77.078 200.772,80.653C199.833,82.241 200.207,84.901 200.151,133.496C200.119,160.557 200.481,161.29 198.432,162.186C198.16,162.305 197.824,162.203 197.553,162.322Z" style="fill:rgb(25,44,50);"/>
            <path d="M156.807,96.064L155.5,97.434L154.5,97.347L153.5,96.266C153.194,96.644 152.366,96.122 152.06,96.5C151.798,96.823 153.06,96.617 153.469,101.505C154.28,111.199 144.82,120.406 141.422,124.453C140.316,125.77 133.747,131.517 133.633,131.885C133.39,132.674 133.922,132.456 133.891,132.5C133.33,133.319 132.945,132.89 132.38,133.714C130.173,131.926 124.997,128.175 119.685,122.329C101.8,102.643 115.88,94.347 120.555,93.835C128.459,92.969 131.734,97.939 133.866,100.16C138.667,105.157 138.664,93.351 149.489,93.663C153.433,93.776 153.398,94.077 156.807,96.064Z" style="fill:rgb(199,103,95);"/>
            <path d="M112.867,150.113C113.019,150.267 123.733,163.466 142.417,160.007C160.227,156.71 168.971,135.266 169.584,134.559C172.131,131.622 176.747,133.737 175.66,137.547C174.003,143.355 165.557,156.857 156.739,161.994C151.317,165.153 151.329,165.105 145.59,167.68C136.952,171.555 142.607,185.859 135.569,184.12C129.233,182.555 135.645,170.97 125.28,166.978C119.23,164.648 107.047,160.385 97.623,140.444C93.893,132.552 101.319,131.132 103.665,136.413C104.202,137.619 106.713,143.271 112.867,150.113Z" style="fill:rgb(66,121,123);"/>
            <path d="M208.559,178.434C220.908,190.674 207.747,212.18 190.419,203.653C178.606,197.84 179.188,177.383 195.463,174.286C201.821,173.077 207.699,177.75 208.559,178.434Z" style="fill:rgb(185,200,200);"/>
            <path d="M256.937,154.502C256.979,153.493 256.969,153.523 257.021,152.493C257.255,147.845 259.289,148.353 265.503,148.414C272.223,148.481 268.484,154.947 270.308,156.698C271.254,157.606 271.423,157.127 274.508,157.201C278.741,157.301 278.293,160.631 278.259,164.493C278.2,171.362 275.398,169.719 271.43,170.052C269.103,170.247 269.794,173.452 269.804,174.487C269.851,179.179 267.776,179.266 260.479,178.959C255.646,178.755 257.149,172.679 256.878,171.409C256.408,169.207 251.997,170.208 250.445,169.638C249.75,169.382 248.367,168.874 248.843,160.524C249.082,156.345 253.002,157.209 254.493,157.192C257.377,157.159 256.789,155.351 256.937,154.502Z" style="fill:rgb(36,43,48);"/>
            <path d="M264.498,116.242C257.545,116.299 256.249,117.282 254.402,112.539C253.508,110.247 252.66,106.685 252.464,106.542C251.142,105.579 250.711,107.415 250.673,107.576C250.372,108.858 250.234,109.444 246.139,123.395C245.591,125.26 244.577,128.617 242.532,128.335C240.07,127.997 235.365,110.854 234.549,110.431C231.928,109.069 233.826,115.698 228.486,116.144C228.125,116.174 218.998,116.211 218.556,116.113C215.758,115.495 215.86,112.412 219.495,112.365C225.235,112.292 227.642,113.334 229.153,110.321C230.414,107.806 232.203,101.262 235.164,102.996C236.363,103.698 236.73,105.96 239.451,112.521C240.98,116.208 241.612,119.814 242.406,119.872C244.243,120.007 243.47,118.957 244.353,115.46C244.558,114.65 244.726,114.706 247.369,105.465C249.531,97.909 249.836,97.747 250.444,97.423C255.443,94.765 255.599,111.382 259.537,112.329C261.992,112.92 271.396,111.125 271.061,114.465C271.045,114.626 270.955,115.523 269.681,115.942C268.965,116.177 264.913,116.236 264.498,116.242Z" style="fill:rgb(220,241,227);"/>
            <path d="M156.807,96.064C157.008,96.247 162.09,99.209 160.728,108.524C159.431,117.396 145.575,129.023 144.167,130.018C137.528,134.712 137.001,137.304 132.38,133.714C132.945,132.89 133.33,133.319 133.891,132.5C133.922,132.456 133.39,132.674 133.633,131.885C133.747,131.517 140.316,125.77 141.422,124.453C144.82,120.406 154.28,111.199 153.469,101.505C153.06,96.617 151.798,96.823 152.06,96.5C152.366,96.122 153.194,96.644 153.5,96.266L154.5,97.347L155.5,97.434L156.807,96.064Z" style="fill:rgb(169,86,81);"/>
            <path d="M195.592,199.134C195.203,198.987 194.79,198.907 194.401,198.759C183.943,194.794 187.426,180.19 197.52,179.896C210.525,179.518 211.536,201.432 195.592,199.134Z" style="fill:rgb(24,49,56);"/>
            <path d="M260.204,170.512C260.029,168.049 260.279,167.972 259.697,167.328C258.711,166.238 254.683,166.524 254.499,166.517C251.088,166.383 252.057,161.847 253.157,161.01C253.807,160.517 253.885,160.744 257.506,160.59C261.098,160.437 260.166,156.565 260.218,154.474C260.251,153.138 260.416,151.483 264.587,152.046C268.633,152.592 263.291,160.501 269.494,160.61C273.148,160.675 274.695,159.826 274.733,163.486C274.772,167.26 273.245,166.576 269.506,166.645C265.196,166.725 266.464,170.739 266.375,173.485C266.278,176.488 261.21,175.283 260.881,175.051C260.084,174.49 260.433,174.298 260.204,170.512Z" style="fill:rgb(186,112,105);"/>
            <path d="M235.48,158.91C237.394,159.353 237.516,159.122 238.149,159.818C238.479,160.179 239.95,163.265 235.499,163.461C235.392,163.466 215.257,163.513 214.511,163.408C211.832,163.031 211.079,159.647 214.424,159.029C215.204,158.885 218.093,158.868 235.48,158.91Z" style="fill:rgb(25,45,52);"/>
            <path d="M223.498,153.046C214.812,152.903 211.679,153.47 212.201,150.427C212.555,148.364 213.516,148.766 234.5,148.688C234.868,148.687 238.437,148.674 238.748,150.444C239.324,153.713 235.227,152.795 223.498,153.046Z" style="fill:rgb(31,53,61);"/>
            <path d="M193.061,187.292C196.764,181.388 203.131,185.344 203.174,189.495C203.258,197.545 189.858,196.274 193.061,187.292Z" style="fill:rgb(132,169,168);"/>
            <path d="M229.497,178.11C229.107,178.103 225.445,178.041 224.681,177.312C223.764,176.437 223.709,174.098 226.526,173.784C226.89,173.744 235.571,173.681 236.46,173.79C236.734,173.824 239.246,174.133 238.571,176.525C237.982,178.614 232.399,178.102 229.497,178.11Z" style="fill:rgb(26,47,53);"/>
            <path d="M109.869,65.567C110.016,65.181 110.058,64.76 110.205,64.374C111.504,60.972 117.439,61.25 116.886,67.542C116.441,72.618 109.715,74.484 109.869,65.567Z" style="fill:rgb(85,133,132);"/>
            <path d="M161.898,65.442C161.902,65.974 161.946,71.059 159.555,71.67C153.635,73.181 153.699,60.628 159.578,62.297C161.618,62.876 161.216,63.398 161.898,65.442Z" style="fill:rgb(95,144,139);"/>
        </g>
    </g>
</svg>
