<?xml version="1.0" encoding="UTF-8" standalone="no"?>
<!DOCTYPE svg PUBLIC "-//W3C//DTD SVG 1.1//EN" "http://www.w3.org/Graphics/SVG/1.1/DTD/svg11.dtd">
<svg width="100%" height="100%" viewBox="0 0 280 118" version="1.1" xmlns="http://www.w3.org/2000/svg" xmlns:xlink="http://www.w3.org/1999/xlink" xml:space="preserve" xmlns:serif="http://www.serif.com/" style="fill-rule:evenodd;clip-rule:evenodd;stroke-linejoin:round;stroke-miterlimit:2;">
    <g transform="matrix(1,0,0,1,-111.705219,-477.085067)">
        <g transform="matrix(1.326172,0,0,1.326172,0,0)">
            <path d="M280.587,395.579C280.721,395.834 280.854,396.089 280.987,396.344C281.505,397.127 281.536,397.209 282.507,397.093C282.744,397.065 284.08,396.772 287.494,396.79C293.407,396.821 292.72,399.908 292.078,406.455C290.281,424.783 288.672,425.761 291.546,427.427C296.12,430.077 296.554,436.78 292.305,440.233C289.601,442.429 288.769,441.676 234.5,441.796C213.925,441.842 214.219,439.236 195.498,436.515C191.278,435.902 163.345,436.125 162.485,436.464C161.096,437.012 158.51,447.73 153.488,448.426C147.051,449.318 148.181,437.946 147.178,436.789C146.26,435.729 136.899,436.278 136.477,436.454C135.076,437.037 135.713,437.533 135.141,441.443C133.8,450.601 128.664,449.009 126.506,446.494C123.387,442.858 122.842,440.563 121.434,437.533C120.645,435.834 120.02,436.102 93.501,436.22C82.548,436.269 81.786,424.301 88.672,420.865C92.327,419.041 114.3,420.643 116.664,419.919C117.771,419.58 117.94,419.187 117.271,409.514C116.713,401.452 110.989,392.937 109.883,386.421C106.121,364.27 122.192,356.14 135.535,361.419C142.146,364.035 142.963,363.256 148.39,361.215C162.549,355.889 171.95,366.133 173.296,374.538C175.754,389.898 168.751,395.371 166.507,405.501C165.865,408.398 165.23,418.431 165.243,418.532C165.5,420.511 166.499,419.995 186.504,420.078C202.761,420.146 220.67,427.352 223.322,426.138C225.511,425.137 220.286,402.38 222.289,398.37C222.552,397.844 223.337,396.273 229.472,396.854C231.983,397.091 231.963,396.868 234.499,396.814C250.113,396.483 250.086,397.31 251.442,397.276C252.235,397.257 253.706,396.239 251.424,395.628C240.246,392.635 240.386,392.168 239.397,391.987C227.158,389.739 226.927,395.769 223.667,394.249C221.695,393.33 220.615,378.461 229.813,371.931C244.794,361.296 263.577,377.167 274.624,370.694C281.126,366.885 277.027,357.421 282.32,361.715C292.836,370.246 291.958,382.4 288.926,387.724C285.536,393.677 283.325,393.954 280.587,395.579Z" style="fill:rgb(26,46,50);"/>
        </g>
        <g transform="matrix(1.326172,0,0,1.326172,0,0)">
            <path d="M161.695,364.083L161.335,365.5L161.934,366.5C171.41,379.461 159.657,395.705 158.408,405.49C157.942,409.136 158.35,427.618 153.921,435.828C153.764,436.12 153.625,436.377 150.722,438.466C150.383,433.866 149.937,427.17 149.655,425.476C147.878,414.774 146.894,412.633 142.409,410.915L142.5,409.014L141.5,408.596C141.141,408.593 140.859,408.198 140.5,408.196C137.149,408.171 135.008,411.184 134.696,411.624C130.807,417.098 127.605,433.424 127.221,435.379C127.024,436.386 126.787,436.232 126.5,436.534C125.517,437.571 125.277,438.573 125.238,438.639C122.754,430.988 121.745,429.34 120.839,416.481C120.162,406.879 120.516,404.42 116.339,395.577C110.76,383.765 111.902,373.715 115.791,368.716C123.397,358.938 136.038,364.785 136.704,365.015C148.194,368.983 148.768,360.142 161.695,364.083Z" style="fill:rgb(252,253,252);"/>
        </g>
        <g transform="matrix(1.326172,0,0,1.326172,0,0)">
            <path d="M164.36,427.525C164.891,427.607 165.29,428.121 165.82,428.204C165.954,428.224 165.844,427.863 167.469,427.853C193.139,427.696 194.391,428.014 202.439,429.834C209.412,431.412 209.452,431.067 216.44,432.698C226.129,434.958 234.762,433.458 274.495,434.017C281.786,434.119 285.561,433.915 286.522,433.863C289.651,433.694 290.969,431.875 291.412,431.537C291.459,431.692 293.285,434.995 290.475,437.473C288.453,439.256 286.546,438.751 234.5,438.798C222.89,438.808 222.966,438.165 211.503,436.486C204.806,435.505 202.244,433.185 186.503,433.137C166.295,433.076 166.298,433.334 164.555,433.121C163.165,432.951 163.172,432.32 164.36,427.525Z" style="fill:rgb(68,124,124);"/>
        </g>
        <g transform="matrix(1.326172,0,0,1.326172,0,0)">
            <path d="M164.36,427.525C164.457,425.939 164.118,423.284 166.452,423.136C166.464,423.135 186.864,423.089 190.507,423.326C207.227,424.418 209.554,429.9 237.5,429.672C241.578,429.639 286.547,429.272 288.469,429.645C289.905,429.924 289.76,430.211 291.412,431.537C290.969,431.875 289.651,433.694 286.522,433.863C285.561,433.915 281.786,434.119 274.495,434.017C234.762,433.458 226.129,434.958 216.44,432.698C209.452,431.067 209.412,431.412 202.439,429.834C194.391,428.014 193.139,427.696 167.469,427.853C165.844,427.863 165.954,428.224 165.82,428.204C165.29,428.121 164.891,427.607 164.36,427.525Z" style="fill:rgb(105,168,163);"/>
        </g>
        <g transform="matrix(1.326172,0,0,1.326172,0,0)">
            <path d="M280.006,370.123C281.32,367.164 281.283,366.287 282.485,366.545C283.441,366.751 283.139,367.109 283.845,368.308C283.988,368.549 283.989,368.532 285.452,370.528C285.182,371.041 284.279,370.987 284.009,371.5C283.989,371.538 285.741,386.364 270.555,389.788C260.123,392.14 244.74,384.141 238.486,383.751C229.393,383.184 227.086,387.817 225.614,389.431C225.355,385.903 225.553,385.931 226.318,382.444C226.684,382.919 225.694,382.939 226.066,383.42C226.141,383.518 226.584,384.092 227.5,383.977C228.153,383.894 230.985,380.183 232.395,379.322C241.107,374 252.622,378.79 255.42,379.712C270.06,384.535 279.288,379.015 281.976,371.5L280.006,370.123Z" style="fill:rgb(170,214,214);"/>
        </g>
        <g transform="matrix(1.326172,0,0,1.326172,0,0)">
            <path d="M161.695,364.083C163.846,365.133 165.328,365.933 166.98,368.143C174.146,377.733 169.591,389.919 165.912,397.682C162.773,404.308 163.585,404.556 161.726,423.53C160.863,432.345 155.076,447.748 152.248,444.866C151.031,443.625 150.809,439.119 150.722,438.466C153.625,436.377 153.764,436.12 153.921,435.828C158.35,427.618 157.942,409.136 158.408,405.49C159.657,395.705 171.41,379.461 161.934,366.5L161.335,365.5L161.695,364.083Z" style="fill:rgb(197,213,217);"/>
        </g>
        <g transform="matrix(1.326172,0,0,1.326172,0,0)">
            <path d="M285.452,370.528C293.938,386.243 279.826,400.083 257.488,394.565C244.16,391.273 237.587,385.509 227.609,389.74C226.119,390.371 226.196,389.521 225.614,389.431C227.086,387.817 229.393,383.184 238.486,383.751C244.74,384.141 260.123,392.14 270.555,389.788C285.741,386.364 283.989,371.538 284.009,371.5C284.279,370.987 285.182,371.041 285.452,370.528Z" style="fill:rgb(101,157,162);"/>
        </g>
        <g transform="matrix(1.326172,0,0,1.326172,0,0)">
            <path d="M280.006,370.123L281.976,371.5C279.288,379.015 270.06,384.535 255.42,379.712C252.622,378.79 241.107,374 232.395,379.322C230.985,380.183 228.153,383.894 227.5,383.977C226.584,384.092 226.141,383.518 226.066,383.42C225.694,382.939 226.684,382.919 226.318,382.444C226.611,381.783 227.858,377.123 232.738,373.862C238.54,369.985 247.177,371.678 248.417,371.921C262.46,374.673 271.542,379.596 280.006,370.123Z" style="fill:rgb(245,253,252);"/>
        </g>
        <g transform="matrix(1.326172,0,0,1.326172,0,0)">
            <path d="M237.626,402.852C237.294,403.079 236.962,403.307 236.631,403.534C236.639,405.211 236.698,417.567 236.462,424.498C236.363,427.385 234.057,426.581 233.708,426.268C232.946,425.585 233.065,425.43 232.972,413.492C232.884,402.13 232.831,400.91 233.354,400.377C233.876,399.846 237.167,399.778 237.502,399.772C237.951,399.762 242.63,399.666 243.028,400.764C243.452,401.934 243.11,422.586 243.078,424.483C243.074,424.742 243.03,427.401 240.518,426.46C239.624,426.126 239.501,422.827 239.489,422.5C239.429,420.898 238.749,402.784 238.549,402.483C238.365,402.207 237.809,403.128 237.626,402.852Z" style="fill:rgb(242,248,249);"/>
        </g>
        <g transform="matrix(1.326172,0,0,1.326172,0,0)">
            <path d="M249.805,402.639C249.198,406.388 249.904,424.639 248.945,425.878C248.118,426.946 246.244,426.999 246.145,424.536C246.009,421.15 245.711,405.175 245.68,403.491C245.666,402.745 244.998,399.902 247.519,399.765C255.108,399.351 255.332,399.84 255.601,400.43C255.955,401.204 256.224,425.305 255.246,426.176C254.885,426.497 252.599,427.351 252.426,424.508C252.078,418.779 252.644,414.853 251.513,408.492C251.297,407.278 252.129,403.319 251.228,402.705C251.134,402.641 251.124,402.701 249.805,402.639Z" style="fill:rgb(243,249,249);"/>
        </g>
        <g transform="matrix(1.326172,0,0,1.326172,0,0)">
            <path d="M262.806,402.546C262.586,411.542 262.229,411.496 262.093,420.48C262.086,420.916 262.609,426.543 260.503,426.601C258.511,426.654 258.967,425.518 258.589,410.499C258.366,401.67 257.978,399.721 260.506,399.598C267.846,399.242 268.516,399.711 268.603,401.485C268.648,402.384 268.595,424.659 268.382,425.456C268.024,426.798 265.327,427.34 265.186,424.537C265.094,422.716 265.299,419.87 264.856,410.448C264.737,407.904 264.419,407.906 264.89,405.419C265.034,404.661 264.808,402.539 264.624,402.418C264.502,402.338 264.492,402.427 262.806,402.546Z" style="fill:rgb(240,247,246);"/>
        </g>
        <g transform="matrix(1.326172,0,0,1.326172,0,0)">
            <path d="M277.602,402.463C275.813,402.527 275.747,402.387 275.698,402.531C275.647,402.681 275.654,402.663 275.632,404.514C275.597,407.501 275.405,407.457 275.191,410.447C274.69,417.477 274.781,423.925 274.758,424.52C274.651,427.364 272.338,426.518 271.945,426.061C271.255,425.258 271.063,401.204 271.362,400.402C271.588,399.792 271.885,398.995 279.465,399.795C280.826,399.939 280.816,400.183 281.103,401.552C281.12,401.631 281.068,423.948 281.036,424.476C280.898,426.815 279.077,427.122 278.171,425.717C277.581,424.802 277.817,405.429 277.602,402.463Z" style="fill:rgb(240,246,247);"/>
        </g>
        <g transform="matrix(1.326172,0,0,1.326172,0,0)">
            <path d="M142.409,410.915C142.281,410.931 136.141,409.113 133.887,424.555C132.74,432.413 132.548,444.909 130.343,445.03C127.91,445.163 125.545,439.232 125.238,438.639C125.277,438.573 125.517,437.571 126.5,436.534C126.787,436.232 127.024,436.386 127.221,435.379C127.605,433.424 130.807,417.098 134.696,411.624C135.008,411.184 137.149,408.171 140.5,408.196C140.859,408.198 141.141,408.593 141.5,408.596L142.5,409.014L142.409,410.915Z" style="fill:rgb(197,213,216);"/>
        </g>
        <g transform="matrix(1.326172,0,0,1.326172,0,0)">
            <path d="M87.713,427.474C90.2,427.631 108.904,428.817 118.857,427.558C119.234,428.913 121.148,433.14 118.482,433.195C111.648,433.337 96.416,433.193 94.497,433.175C88.568,433.12 87.816,431.44 87.713,427.474Z" style="fill:rgb(66,120,121);"/>
        </g>
        <g transform="matrix(1.326172,0,0,1.326172,0,0)">
            <path d="M87.713,427.474C89.056,422.146 90.919,423.195 106.492,423.143C116.371,423.11 117.909,422.768 118.434,424.519C118.731,425.508 118.631,425.507 118.857,427.558C108.904,428.817 90.2,427.631 87.713,427.474Z" style="fill:rgb(102,165,160);"/>
        </g>
        <g transform="matrix(1.326172,0,0,1.326172,0,0)">
            <path d="M229.957,412.493C230.612,425.782 230.596,426.197 229.534,426.575C226.714,427.579 226.903,423.409 226.345,418.517C226.065,416.066 224.904,401.787 224.943,401.533C225.321,399.064 228.786,399.854 229.29,400.614C229.73,401.276 229.723,404.408 229.957,412.493Z" style="fill:rgb(242,248,247);"/>
        </g>
        <g transform="matrix(1.326172,0,0,1.326172,0,0)">
            <path d="M287.934,415.54C287.382,422.88 287.38,426.61 285.499,426.524C283.752,426.445 284.249,425.437 284.133,405.513C284.129,404.932 283.556,400.541 285.313,400.02C286.435,399.688 289.289,399.774 289.297,401.511C289.307,403.744 288.084,414.026 287.934,415.54Z" style="fill:rgb(240,248,249);"/>
        </g>
        <g transform="matrix(1.326172,0,0,1.326172,0,0)">
            <path d="M139.559,371.367C131.736,367.844 130.121,369.646 129.985,368.293C129.915,367.605 130.053,365.282 138.63,368.134C146.47,370.742 146.612,369.779 150.5,369.457C152.251,369.312 152.666,371.242 151.218,372.046C147.14,374.309 140.43,371.705 139.559,371.367Z" style="fill:rgb(32,41,44);"/>
        </g>
        <g transform="matrix(1.326172,0,0,1.326172,0,0)">
            <path d="M136.701,427.484C137.009,427.558 137.192,427.925 137.5,427.999C138.049,428.131 138.053,427.414 144.559,427.891C145.697,427.974 145.63,427.713 146.744,427.529C147.15,431.12 147.149,431.157 147.142,431.474C147.097,433.338 145.899,433.167 138.508,433.057C135.837,433.018 136.054,431.929 136.701,427.484Z" style="fill:rgb(66,120,120);"/>
        </g>
        <g transform="matrix(1.326172,0,0,1.326172,0,0)">
            <path d="M136.701,427.484C136.721,427.229 136.898,424.896 137.088,424.321C137.635,422.667 140.718,423.107 143.503,423.115C146.603,423.125 146.345,424.138 146.744,427.529C145.63,427.713 145.697,427.974 144.559,427.891C138.053,427.414 138.049,428.131 137.5,427.999C137.192,427.925 137.009,427.558 136.701,427.484Z" style="fill:rgb(102,164,158);"/>
        </g>
        <g transform="matrix(1.326172,0,0,1.326172,0,0)">
            <path d="M141.499,420.061C141.488,420.058 137.496,420.872 138.806,417.605C142.03,409.556 145.887,418.435 144.64,419.653C144.325,419.961 141.903,420.044 141.499,420.061Z" style="fill:rgb(236,243,242);"/>
        </g>
    </g>
</svg>
