<?xml version="1.0" encoding="UTF-8" standalone="no"?>
<!DOCTYPE svg PUBLIC "-//W3C//DTD SVG 1.1//EN" "http://www.w3.org/Graphics/SVG/1.1/DTD/svg11.dtd">
<svg width="100%" height="100%" viewBox="0 0 237 222" version="1.1" xmlns="http://www.w3.org/2000/svg" xmlns:xlink="http://www.w3.org/1999/xlink" xml:space="preserve" xmlns:serif="http://www.serif.com/" style="fill-rule:evenodd;clip-rule:evenodd;stroke-linejoin:round;stroke-miterlimit:2;">
    <g transform="matrix(1,0,0,1,-498.343838,-76.445527)">
        <g transform="matrix(1.326172,0,0,1.326172,0,0)">
            <path d="M403.463,57.875C413.81,58.972 415.305,59.808 423.391,58.054C433.39,55.884 433.539,66.74 427.649,68.93C424.872,69.963 423.692,69.381 423.675,72.501C423.645,77.687 423.334,79.476 425.404,79.944C427.455,80.407 431.3,80.033 431.391,86.503C431.504,94.536 430.754,98.007 432.76,99.074C435.55,100.559 444.909,104.646 450.111,115.682C453.605,123.096 453.117,125.054 453.166,153.501C453.168,154.403 453.031,159.121 453.399,159.564C454.277,160.62 454.614,160.053 488.499,160.141C489.032,160.142 498.363,159.045 504.082,166.805C509.006,173.485 507.261,183.11 508.608,184.395C510.998,186.676 515.595,184.628 515.378,197.496C515.32,200.933 512.775,200.084 512.619,203.506C512.094,215.011 513.869,224.817 508.516,224.343C505.47,224.073 506.049,221.311 505.618,209.491C505.452,204.925 505.72,201.179 504.494,201.201C502.991,201.228 503.785,202.187 503.787,219.508C503.788,220.757 504.324,224.774 500.52,224.352C497.316,223.996 498.316,221.314 498.114,203.518C498.112,203.302 498.077,200.214 496.43,201.411C495.578,202.03 496.91,221.787 495.519,223.517C494.896,224.292 491.008,225.699 490.646,221.466C490.17,215.895 490.554,202.173 490.257,201.707C490.152,201.543 488.705,200.519 488.59,202.525C488.231,208.811 489.331,222.404 487.759,223.824C487.319,224.222 483.507,225.649 483.096,221.561C482.851,219.114 483.168,202.009 482.509,201.49C480.901,200.225 480.845,202.428 480.841,202.588C480.713,207.697 481.303,222.129 480.401,223.424C479.408,224.85 475.637,224.639 475.251,222.777C474.385,218.6 475.383,201.872 474.592,201.367C473.132,200.434 473.099,203.246 473.097,203.452C472.909,219.726 473.178,221.007 473.49,222.499C473.774,223.852 473.863,224.602 472.537,224.179C470.583,223.556 471.279,220.841 471.154,203.522C471.152,203.31 471.129,200.146 469.473,201.468C468.6,202.165 470.043,221.532 468.455,223.459C467.769,224.291 463.911,225.824 463.656,221.478C463.436,217.716 463.642,202.181 463.295,201.681C459.74,196.556 463.028,221.606 460.706,223.756C459.846,224.554 456.032,225.31 455.913,221.413C455.387,204.183 456.368,196.227 454.025,202.206C453.611,203.262 454.347,222.476 453.499,223.499C452.144,225.136 451.632,223.635 447.449,224.272C443.149,224.927 444.229,222.251 444.243,203.51C444.246,200.123 442.711,201.413 442.56,201.553C441.531,202.505 443.022,221.622 440.703,223.737C439.653,224.694 439.431,224.508 397.5,224.554C394.087,224.558 379.594,226.569 376.157,212.576C375.544,210.078 375.814,126.875 375.989,125.551C378.152,109.194 390.672,102.083 392.745,100.905C395.875,99.128 397.551,99.296 397.545,96.5C397.519,84.282 396.206,81.279 403.44,80.025C406.14,79.557 405.486,77.294 405.407,72.501C405.338,68.278 403.723,69.023 399.488,68.647C387.96,67.625 384.794,73.425 381.888,69.224C379.003,65.054 377.847,63.499 382.411,61.319C385.943,59.633 389.934,58.781 390.535,58.619C395.877,57.18 398.848,57.712 403.463,57.875Z" style="fill:rgb(28,44,46);"/>
        </g>
        <g transform="matrix(1.326172,0,0,1.326172,0,0)">
            <path d="M431.736,102.069L431.126,103.5C440.259,113.773 440.161,119.102 442.079,134.455C442.228,135.649 442.207,135.64 442.185,149.487C442.177,154.518 442.155,154.493 442.187,159.501C442.196,160.971 441.826,162.843 441.995,163.388C442.029,163.496 442.313,163.388 442.316,163.501C442.327,163.848 441.832,164.215 442.029,164.5C442.46,165.122 443.469,165.165 443.9,165.787C442.354,167.981 442.218,167.898 441.421,170.456C440.773,172.534 440.736,172.501 440.707,172.687C440.432,172.415 439.85,172.704 439.575,172.433C439.332,172.194 439.783,169.16 439.784,165.497C439.792,134.775 439.757,134.725 439.264,133.62C437.708,130.139 435.289,130.761 415.499,130.747C392.76,130.731 391.709,130.188 389.973,133.694C388.986,135.688 389.346,135.819 389.453,161.5C389.571,189.786 388.871,190.529 391.544,192.442C394.07,194.249 405.105,193.053 430.516,193.449C428.764,201.032 432.045,207.849 427.474,210.46C423.831,212.54 420.347,213.87 406.487,214.047C391.601,214.238 387.317,214.32 380.5,212.289L379.505,212.498C378.973,210.001 378.928,210.026 378.935,205.496C379.032,139.638 378.849,135.219 379.071,127.486C379.102,126.42 379.27,120.593 382.853,114.709C388.909,104.764 397.932,101.806 399.346,101.142C401.177,100.283 401.196,100 417.517,99.999C426.014,99.998 426.21,99.477 431.736,102.069Z" style="fill:rgb(101,174,165);"/>
        </g>
        <g transform="matrix(1.326172,0,0,1.326172,0,0)">
            <path d="M516.351,78.747C514.407,78.157 514.436,78.15 512.479,77.571C512.197,77.488 508.151,76.29 510.484,74.477C511.635,73.582 520.54,76.553 521.386,76.836C526.547,78.558 526.711,77.592 528.805,75.893C534.01,71.666 553.706,69.175 553.844,111.497C553.932,138.458 545.206,146.093 542.906,156.592C539.95,170.082 548.591,191.801 547.035,206.468C544.498,230.385 527.339,226.206 523.438,217.532C520.224,210.383 518.815,201.307 523.636,177.53C527.392,159.001 525.098,155.999 522.651,150.432C520.664,145.912 517.504,148.825 511.486,149.328C511.252,149.348 508.673,149.564 509.289,147.385C509.43,146.89 509.472,146.741 515.391,145.369C515.643,145.37 515.809,145.017 516.061,145.018C516.541,145.02 516.981,145.307 517.456,145.377C520.641,145.842 528.648,142.85 530.773,144.09C536.418,147.383 545.485,122.623 540.728,96.451C540.663,96.091 537.595,81.016 533.39,82.031C532.819,82.169 531.604,83.149 520.528,79.431C518.308,78.686 518.262,79.076 517.877,79.067C517.877,79.067 516.473,78.773 516.351,78.747Z" style="fill:rgb(37,42,34);"/>
        </g>
        <g transform="matrix(1.326172,0,0,1.326172,0,0)">
            <path d="M392.033,177.502C391.955,174.996 391.93,175.022 391.968,172.498C392.239,154.463 391.401,135.783 392.532,134.527C393.648,133.287 393.958,133.474 427.5,133.457C434.809,133.453 437.119,132.452 437.133,137.498C437.143,141.177 437.257,182.31 437.15,183.482C436.955,185.615 436.255,185.225 434.689,186.694C433.047,188.234 432.694,190.252 431.558,190.636C430.953,190.84 395.062,191.143 393.503,190.494C392.537,190.093 391.647,189.722 392.033,177.502Z" style="fill:rgb(250,253,251);"/>
        </g>
        <g transform="matrix(1.326172,0,0,1.326172,0,0)">
            <path d="M516.351,78.747C516.473,78.773 517.877,79.067 517.877,79.067C518.262,79.076 518.308,78.686 520.528,79.431C531.604,83.149 532.819,82.169 533.39,82.031C537.595,81.016 540.663,96.091 540.728,96.451C545.485,122.623 536.418,147.383 530.773,144.09C528.648,142.85 520.641,145.842 517.456,145.377C516.981,145.307 516.541,145.02 516.061,145.018C515.809,145.017 515.643,145.37 515.391,145.369C515.177,140.689 512.93,142.579 509.545,142.897C505.791,143.251 506.553,140.444 508.635,139.967C509.579,139.751 510.556,139.713 511.509,139.538C513.708,139.137 513.436,136.012 510.485,136.196C506.468,136.447 506.392,136.698 505.712,136.224C502.983,134.32 507.247,133.561 507.502,133.516C509.714,133.122 509.921,133.477 510.587,132.611C510.738,132.415 511.075,132.319 511.097,132.073C511.109,131.939 510.698,132.115 510.491,130.507C510.25,128.634 509.374,129.676 506.52,129.863C503.552,130.058 503.783,127.591 505.316,127.08C505.662,126.964 509.144,126.496 509.478,126.451C509.705,124.928 509.661,124.945 509.545,123.423C509.2,123.267 508.855,123.111 508.509,122.955C508.493,122.956 504.501,123.656 503.755,122.343C502.791,120.65 504.658,120.195 508.611,119.733C508.825,118.677 508.863,118.711 509.038,117.629C509.121,117.118 509.534,116.32 507.518,116.234C506.849,116.205 506.18,116.255 505.511,116.242C502.485,116.182 502.87,113.904 504.5,113.499C504.809,113.423 504.945,113.389 508.469,113.272C508.732,112.429 508.995,111.586 509.257,110.743C508.992,110.44 508.726,110.136 508.46,109.832C504.637,109.498 504.54,109.752 503.779,109.161C503.202,108.714 502.629,106.666 505.504,106.672C505.816,106.673 509.232,106.68 509.391,106.285C509.412,106.231 509.397,103.732 509.376,103.7C508.835,102.884 502.427,103.536 503.782,100.645C504.324,99.489 507.158,99.896 507.454,99.939C508.719,100.121 509.015,100.827 509.638,99.739C510.188,98.777 510.122,98.777 510.313,97.686C508.446,95.982 506.217,96.718 505.15,95.975C504.066,95.222 503.582,92.921 507.51,93.401C507.806,93.437 510.836,93.808 511.224,93.045C511.307,92.881 511.08,92.853 511.363,90.742C511.68,90.719 511.982,90.945 512.299,90.922C513.389,90.843 513.345,90.642 514.414,90.726C517.448,90.963 516.643,88.716 515.643,88.15C514.326,87.404 514.465,87.253 513.281,86.351C513.345,85.749 513.41,85.148 513.474,84.546C509.8,83.538 507.324,83.037 507.375,81.488C507.45,79.189 513.472,81.547 514.494,81.548C514.73,81.548 516.082,81.548 516.578,79.451C516.634,79.211 516.294,78.987 516.351,78.747Z" style="fill:rgb(110,108,99);"/>
        </g>
        <g transform="matrix(1.326172,0,0,1.326172,0,0)">
            <path d="M526.524,216.487C526.258,215.782 524.216,210.375 523.943,207.429C521.867,185.048 534.192,165.666 525.629,149.435C523.07,144.586 528.398,147.568 530.498,147.569C541.651,147.573 544.148,122.911 544.393,120.489C546.626,98.442 540.482,85.195 539.41,83.562C535.312,77.323 533.787,79.89 531.438,79.695C526.934,79.321 535.257,74.281 541.423,78.608C546.88,82.439 549.618,94.811 550.071,98.572C552.909,122.155 547.151,136.991 546.968,137.636C544.786,145.284 537.818,153.598 539.356,166.512C542.185,190.263 544.054,190.071 543.946,203.511C543.804,221.261 533.113,226.194 526.524,216.487Z" style="fill:rgb(200,164,107);"/>
        </g>
        <g transform="matrix(1.326172,0,0,1.326172,0,0)">
            <path d="M453.159,182.521C453.156,177.448 452.957,177.484 453.14,173.473C453.301,169.93 458.856,170.482 463.5,170.481C492.293,170.474 492.873,170.1 495.218,172.743C497.191,174.965 498.597,183.975 496.556,184.644C494.888,185.191 458.778,184.811 455.493,184.776C452.777,184.748 453.363,183.242 453.159,182.521Z" style="fill:rgb(241,243,228);"/>
        </g>
        <g transform="matrix(1.326172,0,0,1.326172,0,0)">
            <path d="M508.64,188.132C508.587,188.645 507.969,188.987 507.915,189.5C507.898,189.661 508.949,190.897 508.605,192.517C507.907,195.803 504.779,194.83 484.489,194.941C480.65,194.962 438.696,195.191 436.5,195.048L436.978,196.5L435.335,197.655C435.292,197.227 434.929,196.873 434.885,196.445C433.865,186.384 440.352,187.354 451.5,187.51C454.14,187.546 454.105,187.476 484.499,187.573C503.98,187.635 504.018,187.104 508.64,188.132Z" style="fill:rgb(209,170,109);"/>
        </g>
        <g transform="matrix(1.326172,0,0,1.326172,0,0)">
            <path d="M430.516,193.449C430.753,193.625 431.145,193.458 431.381,193.634C432.595,194.537 431.967,194.85 432.122,197.531C432.31,200.758 434.724,200.344 435.041,202.59C435.045,202.621 435.267,220.024 435.195,220.426C434.952,221.786 434.319,221.637 415.5,221.607C391.299,221.567 385.914,222.551 381.785,217.314C380.108,215.187 380.422,215.031 379.505,212.498L380.5,212.289C387.317,214.32 391.601,214.238 406.487,214.047C420.347,213.87 423.831,212.54 427.474,210.46C432.045,207.849 428.764,201.032 430.516,193.449Z" style="fill:rgb(79,143,142);"/>
        </g>
        <g transform="matrix(1.326172,0,0,1.326172,0,0)">
            <path d="M431.736,102.069C434.517,103.346 434.527,103.264 435.274,103.795C451.608,115.402 450.169,122.885 450.209,147.507C450.23,160.213 450.566,160.698 448.348,162.286C446.027,163.949 445.971,163.829 443.9,165.787C443.469,165.165 442.46,165.122 442.029,164.5C441.832,164.215 442.327,163.848 442.316,163.501C442.313,163.388 442.029,163.496 441.995,163.388C441.826,162.843 442.196,160.971 442.187,159.501C442.155,154.493 442.177,154.518 442.185,149.487C442.207,135.64 442.228,135.649 442.079,134.455C440.161,119.102 440.259,113.773 431.126,103.5L431.736,102.069Z" style="fill:rgb(78,143,140);"/>
        </g>
        <g transform="matrix(1.326172,0,0,1.326172,0,0)">
            <path d="M413.451,178.283C413.407,178.296 403.19,182.71 401.572,174.484C400.649,169.79 404.021,167.926 408.032,162.132C412.676,155.427 418.865,158.139 421.535,162.473C424.28,166.93 431.164,171.256 426.495,177.496C426.138,177.973 424.503,179.629 421.498,179.573C417.394,179.498 417.568,178.082 413.451,178.283Z" style="fill:rgb(25,40,42);"/>
        </g>
        <g transform="matrix(1.326172,0,0,1.326172,0,0)">
            <path d="M444.8,169.69C449.365,162.833 453.539,163.139 461.502,163.129C490.696,163.096 493.898,162.765 497.379,164.741C504.429,168.742 504.681,176.441 504.991,182.498C505.008,182.825 505.168,185.955 501.47,184.566C499.122,183.684 502.504,171.258 493.327,167.951C491.054,167.132 456.283,167.318 454.593,167.804C445.909,170.303 446.83,181.372 446.755,182.529C446.53,186.036 441.481,185.5 441.847,182.538C443.096,172.431 443.291,172.461 444.8,169.69Z" style="fill:rgb(173,107,102);"/>
        </g>
        <g transform="matrix(1.326172,0,0,1.326172,0,0)">
            <path d="M508.64,188.132C508.979,188.259 511.604,188.377 512.336,192.528C513.224,197.566 511.779,197.927 511.345,198.035C509.93,198.389 444.339,198.179 438.513,198.16C438.181,198.159 437.849,198.176 437.517,198.177C435.864,198.183 435.686,197.739 435.335,197.655L436.978,196.5L436.5,195.048C438.696,195.191 480.65,194.962 484.489,194.941C504.779,194.83 507.907,195.803 508.605,192.517C508.949,190.897 507.898,189.661 507.915,189.5C507.969,188.987 508.587,188.645 508.64,188.132Z" style="fill:rgb(169,137,94);"/>
        </g>
        <g transform="matrix(1.326172,0,0,1.326172,0,0)">
            <path d="M405.336,169.36C406.416,168.025 409.736,163.712 410.116,163.218C412.247,160.45 416.118,158.923 419.393,163.586C422.106,167.449 426.356,170.415 425.332,174.438C424.142,179.109 416.824,175.893 416.442,175.812C412.151,174.9 404.685,180.109 403.912,173.474C403.652,171.236 404.241,171.371 405.336,169.36Z" style="fill:rgb(120,143,143);"/>
        </g>
        <g transform="matrix(1.326172,0,0,1.326172,0,0)">
            <path d="M402.466,60.925C414.614,62.215 415.55,62.995 423.425,61.2C423.748,61.127 426.609,60.475 427.562,61.442C428.299,62.191 428.857,64.823 426.651,65.792C419.489,68.941 402.012,65.61 399.503,65.445C388.156,64.697 385.693,68.638 383.86,66.249C382.306,64.224 385.582,63.211 388.476,62.415C396.17,60.3 396.481,60.768 402.466,60.925Z" style="fill:rgb(192,205,205);"/>
        </g>
        <g transform="matrix(1.326172,0,0,1.326172,0,0)">
            <path d="M410.429,83.078C413.985,83.868 413.888,82.77 414.496,82.723C414.811,82.698 425.14,82.842 425.459,82.883C429.149,83.356 428.498,86.53 428.546,94.496C428.572,98.705 426.561,96.781 426.415,96.591C425.789,95.771 426.825,86.48 425.577,85.328C424.408,84.249 423.95,84.988 423.915,86.556C423.863,88.888 424.111,96.036 423.593,96.599C423.343,96.871 421.484,97.571 421.185,95.547C420.916,93.729 421.965,85.548 420.204,84.898C419.876,84.776 418.888,85.463 418.805,85.63C418.134,86.983 419.52,96.208 417.629,96.936C415.845,97.622 415.821,95.665 415.819,95.479C415.778,92.152 416.262,83.867 414.519,84.516C414.302,84.597 414.353,84.985 414.158,85.11C413.836,85.319 413.215,85.108 413.059,85.459C412.733,86.195 414.241,96.956 411.5,96.923C410.233,96.908 410.215,94.737 410.214,94.519C410.211,94.238 410.265,86.079 410.205,85.512C410.09,84.422 409.906,84.501 409.914,84.41C409.981,83.679 410.361,83.823 410.429,83.078Z" style="fill:rgb(110,146,150);"/>
        </g>
        <g transform="matrix(1.326172,0,0,1.326172,0,0)">
            <path d="M404.413,145.436C411.142,138.117 416.095,151.193 412.35,155.386C408.069,160.18 400.346,152.74 404.413,145.436Z" style="fill:rgb(23,39,41);"/>
        </g>
        <g transform="matrix(1.326172,0,0,1.326172,0,0)">
            <path d="M426.116,149.508C424.859,159.022 415.854,159.7 415.74,150.509C415.646,142.938 424.471,139.238 426.116,149.508Z" style="fill:rgb(27,42,45);"/>
        </g>
        <g transform="matrix(1.326172,0,0,1.326172,0,0)">
            <path d="M394.973,158.483C395.043,158.004 394.893,155.211 397.553,153.597C399.955,152.14 402.154,154.305 402.438,154.585C407.849,159.911 404.464,166.062 400.511,165.451C396.443,164.823 395.134,159.177 394.973,158.483Z" style="fill:rgb(22,37,40);"/>
        </g>
        <g transform="matrix(1.326172,0,0,1.326172,0,0)">
            <path d="M432.813,162.711C432.458,163.107 429.197,166.751 426.625,165.142C419.074,160.417 429.756,148.128 433.484,155.509C435.076,158.662 433.095,162.206 432.813,162.711Z" style="fill:rgb(31,46,49);"/>
        </g>
        <g transform="matrix(1.326172,0,0,1.326172,0,0)">
            <path d="M410.516,79.883C409.812,79.623 408.571,80.312 408.527,77.499C408.48,74.511 408.294,70.751 409.416,70.324C410.096,70.066 410.089,70.244 418.502,70.188C421.215,70.17 420.814,71.999 420.781,77.5C420.765,80.323 419.179,79.861 415.55,79.846C415.791,78.861 416.192,78.955 416.14,77.437C416.089,75.972 416.836,73.2 413.565,73.022C410.572,72.859 411.719,74.438 411.238,77.404C411.1,78.253 410.654,79.033 410.516,79.883Z" style="fill:rgb(160,179,181);"/>
        </g>
        <g transform="matrix(1.326172,0,0,1.326172,0,0)">
            <path d="M399.262,109.473C398.518,111.167 398.349,111.044 396.778,111.975C386.779,117.899 388.313,128.644 385.233,125.964C382.506,123.591 387.969,111.194 396.439,108.277C398.824,107.456 398.971,109.221 399.262,109.473Z" style="fill:rgb(227,253,250);"/>
        </g>
        <g transform="matrix(1.326172,0,0,1.326172,0,0)">
            <path d="M407.58,83.138C407.642,83.593 407.942,83.994 408.004,84.45C408.035,84.684 407.924,93.722 407.914,94.528C407.892,96.329 408.229,97.156 406.405,96.94C404.98,96.772 405.636,96.05 405.324,86.519C405.299,85.772 405.288,85.756 404.711,85.271C404.532,85.121 404.454,84.838 404.235,84.755C401.684,83.797 404.191,98.179 401.55,97.161C400.252,96.66 400.436,94.664 400.508,87.5C400.558,82.618 402.426,82.716 407.58,83.138Z" style="fill:rgb(177,201,203);"/>
        </g>
        <g transform="matrix(1.326172,0,0,1.326172,0,0)">
            <path d="M517.772,84.119C517.681,83.561 516.578,81.038 520.569,82.201C531.518,85.394 531.552,85.215 532.5,85.501C536.987,86.856 534.779,88.437 534.496,88.486C533.424,88.672 522.15,85.626 517.772,84.119Z" style="fill:rgb(40,48,46);"/>
        </g>
        <g transform="matrix(1.326172,0,0,1.326172,0,0)">
            <path d="M523.404,88.876C528.952,90.33 528.978,90.04 534.496,91.514C538.499,92.584 536.612,94.502 535.5,94.475C533.601,94.43 526.358,92.478 525.573,92.266C525.163,92.155 520.953,91.02 520.595,90.433C520.529,90.324 519.988,89.436 520.755,88.846C521.159,88.535 523.195,88.844 523.404,88.876Z" style="fill:rgb(39,46,43);"/>
        </g>
        <g transform="matrix(1.326172,0,0,1.326172,0,0)">
            <path d="M509.996,203.479C510.258,220.846 509.877,221.967 508.572,221.369C507.524,220.889 507.581,201.975 507.754,201.661C507.828,201.527 508.434,200.425 509.64,201.357C509.777,201.462 509.665,201.501 509.996,203.479Z" style="fill:rgb(173,187,188);"/>
        </g>
        <g transform="matrix(1.326172,0,0,1.326172,0,0)">
            <path d="M524.49,131.422C524.253,131.458 521.877,131.819 521.489,131.521C521.267,131.35 520.165,129.678 522.307,129.019C523.091,128.777 536.185,126.725 537.2,127.836C539.044,129.857 535.433,130.118 524.49,131.422Z" style="fill:rgb(38,45,42);"/>
        </g>
        <g transform="matrix(1.326172,0,0,1.326172,0,0)">
            <path d="M523.564,134.807C528.499,133.743 528.483,133.83 533.457,133.174C535.278,132.933 536.1,132.81 535.754,134.594C535.562,135.583 530.917,136.227 530.478,136.288C524.654,137.097 517.762,138.958 518.793,136.541C519.611,134.624 520.251,135.468 523.564,134.807Z" style="fill:rgb(42,50,50);"/>
        </g>
        <g transform="matrix(1.326172,0,0,1.326172,0,0)">
            <path d="M437.604,203.503C437.808,201.83 437.754,201.825 437.824,201.698C437.894,201.572 438.502,200.476 439.598,201.379C440.41,202.049 439.698,220.571 439.173,221.08C437.217,222.98 437.567,218.767 437.604,203.503Z" style="fill:rgb(159,179,182);"/>
        </g>
        <g transform="matrix(1.326172,0,0,1.326172,0,0)">
            <path d="M524.503,95.478C530.011,96.487 530.018,96.268 535.523,97.409C540.038,98.345 537.6,100.051 537.368,100.181C536.996,100.388 521.91,98.915 521.964,96.524C522.003,94.843 522.813,95.544 524.503,95.478Z" style="fill:rgb(39,45,43);"/>
        </g>
        <g transform="matrix(1.326172,0,0,1.326172,0,0)">
            <path d="M527.496,108.846C532.426,109.084 538.713,109.018 538.924,110.387C539.246,112.479 536.057,112.185 527.482,111.789C527.131,111.773 523.451,111.603 523.26,110.559C523.024,109.268 523.335,109.214 524.565,108.835C524.789,108.766 524.781,108.835 527.496,108.846Z" style="fill:rgb(43,49,47);"/>
        </g>
        <g transform="matrix(1.326172,0,0,1.326172,0,0)">
            <path d="M525.434,104.93C523.616,104.46 523.468,104.69 522.997,104.035C522.812,103.777 521.722,101.587 526.539,102.248C535.443,103.47 538.29,103.315 538.59,104.458C539.342,107.326 534.471,106.039 525.434,104.93Z" style="fill:rgb(39,44,42);"/>
        </g>
        <g transform="matrix(1.326172,0,0,1.326172,0,0)">
            <path d="M526.505,118.306C524.106,118.068 522.71,118.754 523.266,116.415C523.478,115.521 525.306,115.497 525.5,115.494C538.022,115.326 538.44,115.361 538.709,116.386C539.394,118.987 535.67,118.421 526.505,118.306Z" style="fill:rgb(36,43,43);"/>
        </g>
        <g transform="matrix(1.326172,0,0,1.326172,0,0)">
            <path d="M528.533,121.954C534.547,121.738 538.018,121.335 538.29,122.558C538.783,124.772 532.803,124.554 526.522,124.923C526.181,124.943 520.346,125.286 522.812,122.822C523.345,122.29 528.071,121.984 528.533,121.954Z" style="fill:rgb(41,49,46);"/>
        </g>
        <g transform="matrix(1.326172,0,0,1.326172,0,0)">
            <path d="M476.857,211.502C476.864,205.067 476.859,202.928 476.884,202.593C477.024,200.769 478.538,200.527 478.811,202.36C478.92,203.095 478.869,218.376 478.854,219.524C478.828,221.415 478.975,222.695 477.376,221.683C476.658,221.229 476.838,220.032 476.857,211.502Z" style="fill:rgb(206,218,219);"/>
        </g>
        <g transform="matrix(1.326172,0,0,1.326172,0,0)">
            <path d="M450.472,222.517C450.054,221.61 449.73,221.5 450.02,209.509C450.078,207.099 449.374,199.978 451.56,201.418C451.795,201.573 451.996,201.639 451.918,214.51C451.915,214.995 451.885,219.798 451.846,220.572C451.712,223.217 450.623,222.404 450.472,222.517Z" style="fill:rgb(203,214,215);"/>
        </g>
        <g transform="matrix(1.326172,0,0,1.326172,0,0)">
            <path d="M516.923,141.679C518.252,140.434 518.471,140.925 523.427,140.084C527.526,139.388 527.48,139.385 531.524,138.629C534.409,138.089 533.53,140.224 532.617,140.682C531.264,141.361 524.466,142.376 520.605,142.999C520.369,143.037 518.003,143.418 517.636,143.329C516.882,143.145 516.645,142.597 516.603,142.5C516.404,142.037 517.128,142.152 516.923,141.679Z" style="fill:rgb(41,49,49);"/>
        </g>
        <g transform="matrix(1.326172,0,0,1.326172,0,0)">
            <path d="M447.706,222.611C447.585,222.518 446.573,223.067 446.346,221.575C446.094,219.927 446.203,204.929 446.214,203.482C446.215,203.273 446.234,200.634 447.618,201.278C448.435,201.657 448.356,220.553 447.706,222.611Z" style="fill:rgb(219,230,231);"/>
        </g>
        <g transform="matrix(1.326172,0,0,1.326172,0,0)">
            <path d="M492.308,209.503C492.307,208.938 492.294,202.707 492.327,202.443C492.46,201.363 492.501,201.039 493.589,201.238C494.198,201.349 494.205,204.228 494.206,204.493C494.245,219.949 494.336,221.755 493.61,221.815C492.052,221.944 492.337,217.627 492.308,209.503Z" style="fill:rgb(228,238,240);"/>
        </g>
        <g transform="matrix(1.326172,0,0,1.326172,0,0)">
            <path d="M406.089,151.606C406.041,151.21 405.621,147.736 406.683,146.657C410.742,142.532 413.738,155.423 408.507,154.444C406.493,154.067 406.919,153.47 406.089,151.606Z" style="fill:rgb(119,140,141);"/>
        </g>
        <g transform="matrix(1.326172,0,0,1.326172,0,0)">
            <path d="M418.127,149.437C418.669,147.877 418.3,147.657 419.598,146.626C423.825,143.266 424.94,152.592 421.339,154.195C417.7,155.815 418.096,149.896 418.127,149.437Z" style="fill:rgb(113,133,133);"/>
        </g>
        <g transform="matrix(1.326172,0,0,1.326172,0,0)">
            <path d="M457.772,208.493C457.769,207.618 457.705,202.148 457.863,201.819C457.948,201.645 459.583,200.056 459.614,203.494C459.773,221.048 459.828,221.976 458.367,221.822C457.65,221.746 457.792,219.54 457.772,208.493Z" style="fill:rgb(208,220,221);"/>
        </g>
        <g transform="matrix(1.326172,0,0,1.326172,0,0)">
            <path d="M467.284,204.501C467.296,219.911 467.417,221.807 466.586,221.841C465.116,221.901 465.266,221.017 465.402,203.495C465.428,200.063 467.061,201.619 467.148,201.793C467.245,201.987 467.158,201.992 467.284,204.501Z" style="fill:rgb(223,233,233);"/>
        </g>
        <g transform="matrix(1.326172,0,0,1.326172,0,0)">
            <path d="M501.191,222.074C501.008,221.83 500.567,221.889 500.384,221.645C499.693,220.721 499.989,202.443 500.06,202.231C501.715,197.267 501.79,203.319 501.792,203.491C501.994,219.907 501.708,220.679 501.191,222.074Z" style="fill:rgb(187,198,200);"/>
        </g>
        <g transform="matrix(1.326172,0,0,1.326172,0,0)">
            <path d="M484.831,204.498C484.93,202.033 484.859,202.034 484.938,201.836C484.984,201.72 485.443,200.565 486.473,201.528C486.713,201.752 487.014,221.824 486.134,222.041C484.767,222.378 484.884,221.35 484.831,204.498Z" style="fill:rgb(208,218,219);"/>
        </g>
        <g transform="matrix(1.326172,0,0,1.326172,0,0)">
            <path d="M513.281,86.351C514.465,87.253 514.326,87.404 515.643,88.15C516.643,88.716 517.448,90.963 514.414,90.726C513.345,90.642 513.389,90.843 512.299,90.922C511.982,90.945 511.68,90.719 511.363,90.742C506.434,89.093 505.84,89.687 505.649,88.462C505.181,85.463 511.949,87.695 512.484,87.377C512.856,87.156 512.909,86.572 513.281,86.351Z" style="fill:rgb(45,53,49);"/>
        </g>
        <g transform="matrix(1.326172,0,0,1.326172,0,0)">
            <path d="M410.516,79.883C410.654,79.033 411.1,78.253 411.238,77.404C411.719,74.438 410.572,72.859 413.565,73.022C416.836,73.2 416.089,75.972 416.14,77.437C416.192,78.955 415.791,78.861 415.55,79.846C413.872,79.858 412.194,79.871 410.516,79.883Z" style="fill:rgb(182,196,195);"/>
        </g>
        <g transform="matrix(1.326172,0,0,1.326172,0,0)">
            <path d="M402.894,160.48C402.796,160.83 402.889,161.215 402.791,161.565C401.556,165.972 395.359,159.071 398.238,156.2C399.329,155.112 400.547,156.057 400.703,156.178C402.757,157.771 402.76,159.921 402.894,160.48Z" style="fill:rgb(114,133,134);"/>
        </g>
        <g transform="matrix(1.326172,0,0,1.326172,0,0)">
            <path d="M428.403,156.339C428.801,156.258 429.124,155.938 429.523,155.857C430.094,155.741 431.274,156.264 431.544,157.485C432.526,161.936 426.38,165.632 426.402,160.502C426.413,158.061 426.697,158.079 428.403,156.339Z" style="fill:rgb(119,141,142);"/>
        </g>
        <g transform="matrix(1.326172,0,0,1.326172,0,0)">
            <path d="M383.112,135.539C383.122,135.216 383.223,131.869 383.525,131.519C383.732,131.278 386.038,129.301 386.151,134.503C386.249,139.002 383.581,138.102 383.223,136.596C383.142,136.252 383.194,135.884 383.112,135.539Z" style="fill:rgb(223,254,253);"/>
        </g>
        <g transform="matrix(1.326172,0,0,1.326172,0,0)">
            <path d="M449.567,175.522L450.837,176.318C450.893,181.792 451.503,181.86 450.397,185.017C450.234,184.831 449.331,185.151 449.15,183.596C449.14,183.509 449.126,183.393 449.141,182.503C449.185,179.757 448.947,179.784 448.958,179.548C449.016,178.276 449.306,178.329 449.567,175.522Z" style="fill:rgb(73,102,106);"/>
        </g>
        <g transform="matrix(1.326172,0,0,1.326172,0,0)">
            <path d="M511.285,120.215C513.061,119.963 513.157,119.637 513.768,120.216C514.997,121.382 513.595,122.295 513.447,122.391C513.413,122.413 511.432,122.698 511.421,122.683C511.361,122.597 511.747,122.649 511.678,121.395C511.643,120.752 511.321,120.859 511.285,120.215Z" style="fill:rgb(38,41,37);"/>
        </g>
        <g transform="matrix(1.326172,0,0,1.326172,0,0)">
            <path d="M401.531,108.131C400.864,106.939 400.141,106.945 400.889,105.787C401.327,105.108 402.766,105.123 403.155,105.728C404.216,107.378 403.434,107.664 401.531,108.131Z" style="fill:rgb(212,250,249);"/>
        </g>
        <g transform="matrix(1.326172,0,0,1.326172,0,0)">
            <path d="M511.256,107.05C511.693,107.147 512.161,106.955 512.598,107.053C514.068,107.381 513.985,109.565 512.543,109.817C510.62,110.154 511.363,109.011 511.256,107.05Z" style="fill:rgb(37,41,35);"/>
        </g>
        <g transform="matrix(1.326172,0,0,1.326172,0,0)">
            <path d="M513.306,133.266C514.987,132.966 515.573,131.999 516.141,133.636C516.561,134.846 514.762,135.874 514.469,135.714C514.279,135.609 514.388,135.542 513.306,133.266Z" style="fill:rgb(37,40,33);"/>
        </g>
        <g transform="matrix(1.326172,0,0,1.326172,0,0)">
            <path d="M519.184,107.331C516.27,109.653 516.421,105.718 517.471,105.428C519.238,104.939 519.337,106.339 519.349,106.512C519.368,106.79 519.164,107.053 519.184,107.331Z" style="fill:rgb(53,53,48);"/>
        </g>
        <g transform="matrix(1.326172,0,0,1.326172,0,0)">
            <path d="M512.492,100.479C512.61,100.537 513.28,100.269 513.955,101.202C514.04,101.319 514.142,101.44 514.162,101.583C514.498,104.029 510.916,103.126 511.604,101.572C511.794,101.142 512.302,100.908 512.492,100.479Z" style="fill:rgb(39,40,34);"/>
        </g>
        <g transform="matrix(1.326172,0,0,1.326172,0,0)">
            <path d="M519.003,123.945C519.15,125.274 519.681,125.745 518.372,126.077C516.295,126.603 516.233,122.867 518.485,123.534C518.696,123.596 518.791,123.882 519.003,123.945Z" style="fill:rgb(49,50,43);"/>
        </g>
        <g transform="matrix(1.326172,0,0,1.326172,0,0)">
            <path d="M512.734,127.655C512.856,127.512 514.655,125.392 515.089,127.634C515.259,128.516 514.513,129.355 513.554,129.316C512.413,129.27 512.777,128.798 512.734,127.655Z" style="fill:rgb(41,45,38);"/>
        </g>
        <g transform="matrix(1.326172,0,0,1.326172,0,0)">
            <path d="M511.726,114.647C512.451,113.792 512.363,113.305 513.448,113.672C515.134,114.244 513.524,117.206 512.2,115.916C511.547,115.28 511.757,114.731 511.726,114.647Z" style="fill:rgb(42,43,37);"/>
        </g>
        <g transform="matrix(1.326172,0,0,1.326172,0,0)">
            <path d="M518.421,120.078C518.149,119.796 517.584,119.974 517.312,119.692C516.356,118.702 518.009,116.76 519.116,117.841C519.207,117.93 519.906,118.612 519.362,119.414C519.147,119.732 518.637,119.76 518.421,120.078Z" style="fill:rgb(43,43,35);"/>
        </g>
        <g transform="matrix(1.326172,0,0,1.326172,0,0)">
            <path d="M517.783,113.336C517.849,112.034 517.272,111.548 518.454,111.353C520.348,111.039 520.537,114.225 518.337,113.826C518.095,113.782 518.026,113.38 517.783,113.336Z" style="fill:rgb(42,41,33);"/>
        </g>
        <g transform="matrix(1.326172,0,0,1.326172,0,0)">
            <path d="M516.982,100.495C517.475,100.118 516.93,99.802 517.434,99.416C517.508,99.359 517.812,99.127 518.586,99.267C520.114,99.543 519.044,102.725 517.498,101.503C517.202,101.269 517.278,100.729 516.982,100.495Z" style="fill:rgb(44,43,34);"/>
        </g>
        <g transform="matrix(1.326172,0,0,1.326172,0,0)">
            <path d="M547.558,116.502C547.365,117.861 547.172,119.221 546.979,120.58C546.676,117.605 546.099,117.712 546.192,117.473C546.394,116.952 547.356,117.023 547.558,116.502Z" style="fill:rgb(193,156,104);"/>
        </g>
        <g transform="matrix(1.326172,0,0,1.326172,0,0)">
            <path d="M449.567,175.522C450.429,175.509 449.636,174.392 450.48,174.379C450.58,174.378 450.82,174.374 451.027,175.5C451.078,175.775 450.786,176.043 450.837,176.318L449.567,175.522Z" style="fill:rgb(68,95,100);"/>
        </g>
    </g>
</svg>
